<svg width="255" height="256" viewBox="0 0 255 256" fill="none" xmlns="http://www.w3.org/2000/svg">
<path d="M115.43 242.572C123.647 241.174 136.81 241.345 144.652 243.016C149.392 244.022 153.757 245.386 153.979 245.982C154.319 246.904 150.772 251.013 146.8 254.27L144.976 255.701L142.316 255.07C135.65 253.45 123.119 253.485 115.873 255.104C110.878 256.247 109.769 256.281 108.218 255.292V255.31C106.325 254.133 103.12 250.722 101.961 248.693L101.04 246.988L101.961 246.357C103.342 245.505 111.031 243.323 115.43 242.572ZM128.626 225.913C137.253 225.913 141.157 226.391 146.527 228.062C148.488 228.641 148.863 228.948 149.75 230.688C151.745 234.609 154.745 242.351 154.302 242.351C154.18 242.35 152.562 241.907 150.603 241.311C143.544 239.281 139.571 238.804 129.257 238.804C117.783 238.804 111.048 239.759 103.325 242.504C102.354 242.845 101.467 243.032 101.364 242.913H101.347C100.972 242.536 102.644 238.171 105.49 232.034L106.871 229.033L109.939 228.146C115.6 226.441 119.999 225.913 128.626 225.913ZM0.176744 140.315C0.551827 137.945 1.0628 137.877 3.65428 139.872C8.13823 143.282 13.6453 145.056 19.9023 145.056C24.0112 145.056 26.1084 144.68 36.5596 142.174C45.9535 139.872 49.1758 139.463 56.541 139.735C66.242 140.11 73.2667 141.833 81.2969 145.908C97.4253 154.076 110.809 171.588 117.186 192.782C119.214 199.551 121.106 211.794 121.106 218.086C121.106 221.94 120.697 221.633 119.282 216.858C115.924 205.213 111.474 197.949 102.233 189.082C95.5332 182.637 88.5769 178.391 81.5527 176.43C68.3738 172.798 55.9956 175.577 46.6015 184.393C41.3504 189.303 38.0082 195.05 36.3203 202.16C35.5701 205.263 35.4681 206.747 35.6045 211.675C35.8261 218.103 36.73 221.616 39.3896 226.663C41.8277 231.25 47.4881 236.57 53.7793 240.236C55.45 241.208 56.8135 242.078 56.8135 242.197C56.8128 242.47 55.9594 242.385 51.5625 241.754L51.5459 241.736C30.8993 238.701 13.986 227.055 6.26268 210.516C2.66531 202.74 1.52351 197.232 1.5576 187.462C1.59173 177.436 3.21152 169.217 7.1328 159.788C7.50778 158.868 7.57569 158.236 7.28612 157.861C7.06448 157.537 5.99 156.19 4.88182 154.826C0.994615 150.052 -0.55635 145.243 0.176744 140.315ZM252.897 136.257C253.187 136.257 253.597 137.434 253.887 138.883C254.807 143.725 252.966 148.875 248.533 153.905L246.419 156.31L247.493 158.714C251.022 166.591 252.898 174.844 253.341 184.273C254.159 202.041 246.93 217.677 233.257 228.01C225.295 234.012 215.048 238.326 203.881 240.406C199.926 241.139 198.851 241.225 199.431 240.73L199.414 240.781C199.637 240.593 201.444 239.332 203.455 238.002C210.974 233.04 215.782 227.021 218.407 219.382C219.839 215.238 220.077 205.4 218.884 200.592C216.037 189.27 207.41 179.755 196.465 175.867C191.981 174.23 187.957 173.718 182.484 174.025C169.868 174.724 158.666 179.721 149.408 188.775C142.145 195.886 137.73 204.429 136.604 213.5C135.684 220.781 134.167 222.826 134.645 216.159C136.094 195.919 141.191 178.971 149.597 166.387C156.723 155.73 167.651 146.778 178.75 142.413C188.178 138.713 198.238 137.314 208.194 138.337C212.9 138.814 215.747 139.445 224.886 142.037C229.881 143.435 238.201 143.589 241.799 142.361C245.055 141.253 247.493 139.957 250.152 137.996C251.38 137.041 252.625 136.257 252.897 136.257ZM188.86 89.2295C192.372 89.1783 195.885 89.7412 199.482 90.8154C212.32 94.8055 223.351 106.349 233.632 126.589C234.962 129.181 235.967 131.398 235.848 131.432C235.757 131.497 233.066 130.356 229.847 128.874C222.857 125.634 216.855 123.588 211.127 122.445C205.245 121.269 195.254 121.269 189.304 122.445C180.063 124.253 171.078 128.175 163.304 133.683C158.82 136.871 151.608 143.776 148.096 148.261C142.555 155.354 137.337 164.614 133.484 174.265C131.49 179.329 128.199 190.106 128.199 191.691C128.199 192.697 127.415 193.021 127.193 192.135C120.169 165.756 106.53 144.953 88.4238 133.153C82.0304 129.01 74.7331 125.941 66.8564 124.082C61.6053 122.871 49.9264 122.582 44.624 123.503C38.043 124.697 31.206 127.135 22.9883 131.278C20.7042 132.438 18.6928 133.358 18.5557 133.358C17.6691 133.358 21.6244 124.747 25.29 118.745C40.6684 93.39 60.5311 84.6594 80.7344 94.2422C106.564 106.724 117.629 145.123 127.568 169.694C131.984 151.313 158.393 90.4066 188.877 89.2295H188.86ZM128.268 0.0341797C128.421 0.205263 129.018 1.75707 129.598 3.42773C134.201 16.1137 140.662 28.766 148.249 39.6787C149.067 40.8552 149.801 41.9635 150.5 43.0889C153.978 47.3685 156.415 52.2281 157.933 57.7354V57.7529C159.194 61.6746 159.757 65.4086 159.604 69.2109C159.757 73.0645 159.194 76.7648 157.933 80.7207C156.415 86.2282 153.978 91.0882 150.5 95.334C149.801 96.4423 149.067 97.6017 148.249 98.7441C140.662 109.691 134.184 122.343 129.598 134.995C129.001 136.7 128.404 138.217 128.268 138.439C128.114 138.627 127.381 137.263 126.597 135.37C122.675 125.736 116.315 113.494 110.434 104.354C107.365 99.5461 105.063 95.8799 103.256 92.8789C102.028 91.0375 100.921 89.0762 100 86.9961C98.0052 83.0743 97.2723 80.414 96.6074 76.7139C96.1641 74.2585 95.9425 71.7345 95.9765 69.2109C95.9425 66.7387 96.1642 64.2325 96.6074 61.7432C97.2553 58.043 98.0052 55.3486 100 51.4268C100.921 49.3977 102.028 47.4366 103.256 45.5781C105.063 42.5771 107.348 38.8769 110.434 34.1025C116.316 24.929 122.675 12.7204 126.597 3.10352C127.347 1.33018 128.046 0 128.233 0L128.268 0.0341797Z" fill="#9C2829"/>
</svg>
