<svg width="1163" height="373" viewBox="0 0 1163 373" fill="none" xmlns="http://www.w3.org/2000/svg">
<path d="M1159.28 79.7013C1161.3 79.5998 1162.98 82.2217 1162.98 85.4899C1162.98 88.7581 1161.3 91.3523 1159.28 91.26H783.762C781.722 91.3615 780.051 88.7396 780.051 85.4899C780.051 82.2402 781.722 79.5998 783.762 79.7013H1159.28Z" fill="#9D2829"/>
<path d="M3.71132 80.1628C1.68948 80.0612 0 82.6831 0 85.9329C0 89.1826 1.68025 91.823 3.71132 91.7214H379.247C381.269 91.823 382.958 89.1918 382.958 85.9329C382.958 82.6739 381.278 80.0612 379.247 80.1628H3.71132Z" fill="#007867"/>
<path d="M124.421 297.709C115.706 287.987 110.121 281.866 107.674 279.3C105.329 276.613 103.585 274.665 102.486 273.428C101.803 272.763 101.027 271.988 100.141 271.083C99.2362 270.197 97.7314 268.646 95.608 266.393C93.263 263.956 90.9181 261.482 88.5731 259.026C86.2281 256.58 83.8278 254.059 81.3813 251.493C80.9197 250.929 80.4211 250.431 79.858 249.988C79.2948 249.425 78.7963 248.861 78.3531 248.308C67.413 236.924 57.0361 226.335 47.2039 216.494C37.3901 206.578 30.3553 199.525 26.1085 195.398V271.259C26.0069 271.923 25.9423 272.708 25.9423 273.604V280.14C26.0623 281.922 26.2285 283.704 26.4408 285.485C26.7824 287.267 27.2163 288.735 27.7887 289.834C28.3519 290.96 29.4136 291.902 30.9738 292.677C32.6356 293.462 34.3805 294.2 36.1623 294.865C36.7254 295.087 37.224 295.308 37.6671 295.53C38.101 295.65 38.5626 295.77 39.0058 295.872L43.6957 297.376H0L2.8435 296.056C3.40666 295.936 3.90519 295.779 4.35757 295.558C4.92073 295.318 5.45619 295.096 6.02858 294.874C7.9304 294.099 9.7122 293.25 11.4017 292.373C13.1835 291.468 14.4021 290.406 15.0853 289.187C15.63 288.181 15.9716 286.436 16.0916 283.999C16.3132 281.432 16.4701 278.691 16.5901 275.782V173.472H26.3116C27.5302 175.032 28.9704 176.943 30.6599 179.177C32.3309 181.282 34.5651 183.812 37.3532 186.711C42.0431 191.502 47.1854 196.811 52.7616 202.618C58.4486 208.406 64.2003 214.333 70.0073 220.371C81.8521 232.751 92.8845 244.31 103.16 255.019C113.537 265.738 119.907 272.145 122.252 274.268V191.715C122.252 189.49 122.187 187.486 122.076 185.704C121.975 183.803 121.689 182.455 121.255 181.679C120.692 180.553 119.565 179.611 117.904 178.836C116.343 178.06 114.654 177.331 112.881 176.648C112.66 176.546 112.484 176.491 112.383 176.491C112.263 176.371 112.161 176.334 112.041 176.334C111.478 176.094 110.915 175.872 110.361 175.651C109.816 175.429 109.262 175.208 108.69 174.986L105.846 173.463H149.533L144.843 175.484C144.501 175.706 144.178 175.863 143.846 175.983C143.624 176.085 143.347 176.205 143.006 176.325C141.224 177.1 139.599 177.885 138.159 178.67C136.82 179.334 135.592 180.23 134.475 181.328C133.912 181.892 133.469 183.23 133.127 185.354C132.906 187.357 132.749 189.545 132.629 191.89C132.527 193.238 132.472 194.577 132.472 195.897V297.709H124.44H124.421Z" fill="white"/>
<path d="M273.53 180.489C258.361 181.052 246.304 186.702 237.367 197.42C228.551 208.019 224.184 220.399 224.304 234.58C224.525 248.197 229.335 260.642 238.706 271.924C248.077 283.205 260.023 289.271 274.527 290.176H276.207C276.428 290.296 276.65 290.332 276.872 290.332H277.896C291.505 290.332 303.34 285.486 313.394 275.764C323.429 265.95 328.461 253.33 328.461 237.922C328.461 222.513 323.309 209.514 313.052 197.919C302.897 186.296 290.332 180.553 275.367 180.664H273.53V180.489ZM273.705 171.118C273.927 171.238 274.148 171.293 274.37 171.293H276.872C294.403 171.293 309.581 177.045 322.423 188.539C335.265 200.042 341.894 215.488 342.337 234.912C342.577 254.447 335.8 270.133 322.081 281.95C308.362 293.693 292.169 299.435 273.52 299.205C255.989 299.103 241.106 292.853 228.828 280.454C216.65 267.954 210.576 252.767 210.576 234.921C210.576 217.075 216.761 202.71 229.142 190.552C241.54 178.393 256.386 171.958 273.696 171.303V171.127L273.705 171.118Z" fill="white"/>
<path d="M441.583 170.961C445.589 171.081 449.458 171.404 453.141 171.958C456.936 172.401 460.056 172.955 462.512 173.638C462.733 173.638 462.955 173.702 463.177 173.795C463.518 173.795 463.795 173.859 464.017 173.961L467.368 174.801L467.709 207.114L460.675 190.043C459.114 186.138 456.714 183.581 453.464 182.335C450.242 180.987 446.051 180.202 440.909 179.99H439.588C432.775 179.99 427.033 182.335 422.334 187.024C417.745 191.613 415.465 197.134 415.465 203.605C415.465 207.852 416.803 211.517 419.49 214.638C422.278 217.666 425.279 220.223 428.519 222.347C430.301 223.473 431.99 224.47 433.551 225.356C435.212 226.141 436.671 226.815 437.899 227.378C438.794 227.821 439.625 228.264 440.401 228.717C441.306 229.16 442.183 229.603 443.087 230.037C451.239 234.182 458.44 238.697 464.681 243.599C471.051 248.529 474.338 255.601 474.56 264.87C474.8 276.031 471.153 284.562 463.684 290.489C456.215 296.398 446.66 299.407 435.055 299.527H433.375C432.812 299.527 432.277 299.463 431.713 299.37C429.802 299.25 427.901 299.029 426.017 298.687C424.115 298.466 422.37 298.189 420.81 297.847C419.49 297.524 418.244 297.247 417.145 297.025C416.019 296.804 415.123 296.628 414.459 296.527L407.248 294.505L406.427 262.691L412.114 277.435C413.674 281.691 416.12 284.682 419.49 286.473C422.934 288.255 426.562 289.436 430.365 290C431.03 290.101 431.649 290.221 432.203 290.314C432.867 290.314 433.486 290.378 434.049 290.489C434.363 290.489 434.649 290.526 434.889 290.655H437.391C443.983 290.655 449.771 288.652 454.794 284.627C459.918 280.62 462.447 275.468 462.327 269.218V268.055C461.986 262.128 459.982 257.623 456.299 254.493C452.735 251.243 448.424 248.344 443.42 245.778C441.961 244.993 440.456 244.218 438.887 243.433C437.447 242.648 435.923 241.808 434.363 240.922C432.36 239.795 430.421 238.734 428.51 237.737C426.728 236.739 424.946 235.733 423.146 234.708C417.579 231.486 412.991 227.858 409.427 223.833C405.863 219.826 403.842 213.899 403.398 206.08V204.418C403.398 194.022 407.304 185.926 415.114 180.137C423.044 174.201 431.861 171.201 441.573 171.081V170.924L441.583 170.961Z" fill="white"/>
<path d="M534.116 170.804L541.151 173.463H620.187L628.903 170.296L628.561 207.797L625.874 198.925C625.773 198.805 625.653 198.703 625.533 198.583V198.085C625.311 197.42 625.09 196.737 624.868 196.081C624.748 195.398 624.582 194.743 624.37 194.059C623.594 191.834 622.745 189.776 621.868 187.874C620.963 185.871 619.744 184.587 618.184 184.024C617.621 183.803 617.058 183.627 616.504 183.526C615.941 183.406 615.377 183.369 614.842 183.369C614.279 183.249 613.716 183.193 613.153 183.193H610.134L588.032 183.027V281.146C588.032 283.029 588.097 284.71 588.207 286.159C588.429 287.498 589.094 288.846 590.211 290.184C590.875 291.089 592.048 291.865 593.71 292.529C595.519 293.093 597.338 293.591 599.24 294.034C599.581 294.154 599.858 294.256 600.08 294.376C600.421 294.496 600.745 294.542 601.077 294.542C601.982 294.782 602.803 295.04 603.579 295.382C604.364 295.604 605.102 295.825 605.767 296.056L609.45 297.376H552.691L556.541 296.213C557.427 296.093 558.443 295.871 559.551 295.548C560.788 295.207 562.016 294.865 563.234 294.523C564.361 294.08 565.478 293.702 566.576 293.36C567.703 292.917 568.7 292.455 569.605 292.012C570.168 291.791 570.666 291.514 571.109 291.172C571.553 290.858 571.894 290.572 572.106 290.351C572.448 289.787 572.734 289.289 572.956 288.827C573.297 288.264 573.519 287.729 573.611 287.165C573.731 286.602 573.796 286.039 573.796 285.485C573.898 284.922 573.953 284.424 573.953 283.98V282.3C573.833 281.977 573.796 281.7 573.796 281.478V183.018H547.835C547.272 183.138 546.709 183.184 546.173 183.184C545.712 183.184 545.269 183.239 544.826 183.359C544.604 183.461 544.327 183.581 543.985 183.673C543.764 183.793 543.542 183.913 543.321 184.015C541.973 184.91 540.911 186.48 540.136 188.705C539.36 190.948 538.677 193.33 538.114 195.915C538.012 196.229 537.892 196.635 537.791 197.078C537.791 197.42 537.726 197.734 537.615 198.075C537.514 198.639 537.329 199.202 537.117 199.756C537.015 200.319 536.895 200.854 536.803 201.417L534.956 207.123L534.116 170.785V170.804Z" fill="white"/>
<path d="M716.958 181.015C716.617 181.116 716.275 181.172 715.952 181.172C715.73 181.172 715.5 181.107 715.278 181.015H712.767C710.643 181.015 708.585 181.172 706.581 181.513C704.679 181.735 703.396 182.058 702.732 182.519C701.707 183.184 701.107 184.08 700.894 185.178C700.774 186.305 700.719 187.477 700.719 188.705V234.423L708.594 234.247C717.411 234.247 724.999 231.865 731.37 227.055C737.721 222.144 740.851 215.718 740.74 207.806V205.803C740.177 198.99 737.721 193.46 733.373 189.213C729.126 184.864 724.436 182.307 719.312 181.522C718.971 181.402 718.592 181.347 718.149 181.347C717.808 181.245 717.411 181.19 716.967 181.19V181.033L716.958 181.015ZM724.649 239.768L721.297 240.451L739.891 261.039C741.894 263.384 743.741 265.544 745.421 267.575C747.203 269.458 748.929 271.36 750.609 273.262C751.052 273.825 751.496 274.388 751.957 274.924C752.52 275.385 753.019 275.884 753.462 276.447C754.81 277.887 756.186 279.355 757.644 280.796C759.204 282.236 760.829 283.805 762.491 285.485C763.488 286.39 764.328 287.212 765.012 287.987C765.787 288.671 766.572 289.335 767.356 290.009C767.8 290.323 768.178 290.674 768.52 291.006C768.963 291.32 769.461 291.671 770.025 292.003C771.031 292.668 772.148 293.407 773.394 294.191C774.714 294.856 776.404 295.696 778.398 296.693L782.922 298.697L777.392 300.045C777.17 300.165 776.893 300.201 776.552 300.201H775.388C773.607 300.201 771.363 299.878 768.704 299.204C766.119 298.641 763.451 297.921 760.645 297.044C757.524 295.807 753.739 292.954 749.261 288.486C744.913 284.018 740.389 279.226 735.699 274.102C735.579 273.982 735.478 273.927 735.358 273.927C735.256 273.825 735.192 273.705 735.192 273.604C734.195 272.579 733.225 271.582 732.348 270.585C731.443 269.578 730.566 268.581 729.662 267.575L705.224 241.448H700.691V281.128C700.691 283.011 700.747 284.691 700.848 286.141C701.088 287.48 701.753 288.827 702.87 290.166C703.535 291.071 704.716 291.846 706.378 292.511C708.16 293.074 710.006 293.573 711.908 294.016C712.25 294.136 712.527 294.238 712.748 294.358C713.09 294.459 713.413 294.524 713.755 294.524C714.65 294.745 715.481 295.022 716.257 295.364C717.032 295.585 717.78 295.807 718.445 296.029L722.128 297.367H665.36L669.228 296.204C670.114 296.084 671.111 295.862 672.238 295.521C673.456 295.198 674.703 294.856 675.921 294.524C677.14 294.081 678.322 293.702 679.448 293.36C680.547 292.917 681.516 292.456 682.292 292.013C682.956 291.791 683.455 291.514 683.796 291.172C684.24 290.831 684.572 290.572 684.793 290.332C685.357 289.668 685.735 288.957 685.957 288.172C686.197 287.267 686.354 286.39 686.474 285.485V189.887C686.474 188.428 686.354 187.08 686.132 185.861C686.012 184.643 685.514 183.452 684.627 182.335C683.852 181.449 682.569 180.608 680.759 179.824C679.097 178.937 677.315 178.097 675.414 177.322C674.287 176.86 673.17 176.482 672.072 176.14C671.065 175.697 670.105 175.291 669.228 174.977L665.545 173.454H696.02C697.7 173.574 699.26 173.629 700.71 173.629C702.15 173.509 703.609 173.407 705.058 173.287H710.09C711.308 173.186 712.591 173.13 713.939 173.13C715.176 173.13 716.404 173.186 717.623 173.287C718.962 173.287 720.365 173.352 721.805 173.444C722.71 173.564 723.532 173.684 724.307 173.786C725.212 173.906 726.117 174.007 726.994 174.127C733.705 175.568 739.891 179.094 745.587 184.671C751.274 190.256 754.118 198.011 754.118 207.945C754.118 215.534 752.234 221.507 748.421 225.874C744.738 230.222 740.676 233.509 736.207 235.752C734.204 236.749 732.173 237.589 730.179 238.254C728.175 238.937 726.329 239.472 724.649 239.934V239.759V239.768Z" fill="white"/>
<path d="M899.616 238.928L882.712 195.075L865.642 238.928H899.616ZM891.077 173.463C891.298 174.368 891.52 175.208 891.76 175.983C891.981 176.648 892.203 177.331 892.425 177.987C892.545 178.762 892.702 179.491 892.923 180.175C893.145 180.839 893.366 181.615 893.588 182.519C895.176 187.302 897.456 193.958 900.457 202.433C903.485 210.807 906.642 219.522 910.012 228.551C910.233 229.114 910.455 229.677 910.677 230.231C910.898 230.794 911.12 231.357 911.341 231.902C915.366 242.962 919.152 253.173 922.743 262.553C926.427 271.813 928.873 277.795 930.11 280.463C930.433 281.368 930.775 282.143 931.107 282.808C931.43 283.491 931.772 284.211 932.114 284.996C932.335 285.559 932.612 286.159 932.954 286.843C933.268 287.406 933.618 288.006 933.951 288.68C934.514 289.806 935.613 290.803 937.302 291.689C939.084 292.594 940.986 293.434 942.989 294.21C943.432 294.311 943.894 294.496 944.337 294.708C944.78 294.921 945.214 295.087 945.676 295.207C945.999 295.308 946.285 295.493 946.497 295.705C946.839 295.807 947.18 295.927 947.522 296.047L951.021 297.367H901.463L905.811 295.705C906.494 295.585 907.215 295.364 907.999 295.022C908.775 294.708 909.624 294.358 910.501 294.025C912.061 293.462 913.465 292.807 914.683 292.022C916.031 291.246 916.871 290.295 917.213 289.178C917.213 289.058 917.268 288.957 917.37 288.837V288.338C917.37 287.775 917.268 287.055 917.028 286.15C916.807 285.264 916.53 284.424 916.207 283.639C916.087 283.205 915.967 282.799 915.865 282.476C915.745 282.134 915.643 281.793 915.523 281.451C915.422 281.008 915.246 280.629 915.025 280.288C914.923 279.845 914.803 279.448 914.683 279.106L903.466 247.634H862.116L850.4 278.94C850.28 279.281 850.178 279.558 850.058 279.78V280.279C849.837 280.722 849.615 281.22 849.394 281.783C849.274 282.347 849.172 282.91 849.052 283.464C848.71 284.682 848.434 285.873 848.212 286.972C847.99 288.098 847.898 288.938 847.898 289.492V289.991C848.341 290.988 849.181 291.828 850.4 292.493C851.748 293.056 853.188 293.619 854.748 294.173C854.97 294.173 855.21 294.21 855.431 294.33C855.653 294.33 855.81 294.394 855.93 294.496C856.493 294.736 857.029 294.948 857.601 295.17C858.164 295.272 858.663 295.456 859.115 295.669L863.62 297.33H817.903L821.586 296.01C822.362 295.77 823.211 295.512 824.107 295.17C825.113 294.828 826.055 294.496 826.95 294.173C828.852 293.49 830.634 292.714 832.296 291.828C833.976 290.923 835.102 289.991 835.638 288.984C835.979 288.421 836.256 287.867 836.478 287.304C836.699 286.741 836.921 286.242 837.161 285.799C837.383 285.458 837.54 285.116 837.66 284.802C837.761 284.461 837.881 284.054 837.973 283.621C838.214 283.187 838.371 282.744 838.472 282.282C838.712 281.839 838.934 281.34 839.155 280.777C840.595 277.647 841.999 274.425 843.337 271.056C844.778 267.612 846.245 264.085 847.686 260.522C848.461 258.74 849.246 256.949 850.031 255.149C850.806 253.265 851.591 251.354 852.376 249.452C858.183 235.05 863.436 221.608 868.116 209.108C872.806 196.488 875.714 188.456 876.813 184.994C877.155 183.895 877.441 182.87 877.662 181.984C878.004 181.079 878.281 180.202 878.503 179.297C878.503 178.956 878.558 178.679 878.66 178.457C878.78 178.134 878.835 177.793 878.835 177.451C879.056 176.888 879.213 176.288 879.333 175.614C879.555 174.949 879.712 174.266 879.832 173.61L891.049 173.454V173.435L891.077 173.463Z" fill="white"/>
<path d="M1021.33 189.868V281.137C1021.33 282.355 1021.45 283.519 1021.67 284.645C1021.9 285.771 1022.39 286.704 1023.18 287.489C1023.85 288.172 1024.74 288.615 1025.87 288.836C1026.99 289.058 1028.09 289.233 1029.21 289.335H1030.71L1051.31 289.178C1052.08 289.28 1052.87 289.335 1053.65 289.335C1054.56 289.233 1055.44 289.049 1056.34 288.836C1057.47 288.735 1058.58 288.495 1059.69 288.172C1060.82 287.83 1061.75 287.396 1062.54 286.833C1064.1 285.827 1065.29 284.543 1066.06 282.983C1066.84 281.423 1067.57 279.678 1068.25 277.795C1068.35 277.333 1068.47 276.955 1068.56 276.613C1068.79 276.17 1068.96 275.773 1069.06 275.45L1071.25 269.237V297.385H986.029L989.879 296.204C990.756 296.084 991.78 295.862 992.879 295.539C994.125 295.197 995.344 294.856 996.563 294.514C997.689 294.071 998.806 293.693 999.914 293.351C1001.03 292.908 1002.04 292.446 1002.93 292.003C1003.5 291.781 1003.99 291.505 1004.44 291.163C1004.88 290.849 1005.22 290.563 1005.44 290.341C1005.67 290 1005.84 289.658 1005.94 289.344C1006.16 289.003 1006.39 288.661 1006.63 288.319C1006.85 287.655 1006.95 286.999 1006.95 286.316C1007.07 285.651 1007.12 284.968 1007.12 284.313V189.877C1007.12 189.536 1007.16 189.194 1007.28 188.88V187.043C1007.28 186.6 1007.22 186.194 1007.12 185.861C1007.12 185.418 1007.06 184.975 1006.95 184.513C1006.85 183.849 1006.66 183.23 1006.45 182.695C1006.23 182.011 1005.89 181.393 1005.45 180.848C1005.23 180.608 1004.89 180.35 1004.45 180.008C1004 179.666 1003.51 179.389 1002.94 179.168C1002.05 178.725 1001.04 178.328 999.923 178.005C998.824 177.543 997.698 177.1 996.572 176.657C995.353 176.315 994.135 175.974 992.888 175.66C991.79 175.318 990.765 175.041 989.888 174.82L986.038 173.472H1042.79L1039.1 174.977C1038.44 175.438 1037.66 175.752 1036.76 175.974C1035.87 176.214 1034.92 176.435 1033.92 176.657C1033.69 176.758 1033.48 176.878 1033.26 176.998C1033.04 176.998 1032.8 177.035 1032.58 177.165C1030.69 177.608 1028.85 178.162 1027.05 178.826C1025.38 179.389 1024.2 180.063 1023.54 180.848C1023.42 181.07 1023.25 181.291 1023.04 181.513C1022.92 181.633 1022.82 181.799 1022.7 182.011C1022.03 183.249 1021.64 184.532 1021.54 185.861C1021.42 187.098 1021.36 188.483 1021.36 190.043V189.868H1021.33Z" fill="white"/>
<path d="M1141.55 189.868V281.137C1141.55 283.02 1141.61 284.701 1141.71 286.15C1141.95 287.489 1142.61 288.837 1143.73 290.175C1144.4 291.08 1145.58 291.855 1147.24 292.52C1149.02 293.083 1150.87 293.582 1152.77 294.025C1153.11 294.145 1153.39 294.247 1153.61 294.367C1153.95 294.487 1154.27 294.533 1154.62 294.533C1155.51 294.754 1156.33 295.031 1157.12 295.373C1157.89 295.594 1158.64 295.816 1159.31 296.047L1162.99 297.367H1106.22L1110.09 296.204C1110.98 296.084 1111.97 295.862 1113.1 295.521C1114.32 295.197 1115.56 294.856 1116.78 294.524C1117.9 294.08 1119.01 293.702 1120.13 293.36C1121.25 292.917 1122.25 292.456 1123.15 292.012C1123.69 291.791 1124.22 291.514 1124.66 291.172C1125.1 290.858 1125.43 290.572 1125.66 290.332C1126 289.797 1126.27 289.289 1126.5 288.827C1126.82 288.264 1127.06 287.729 1127.16 287.166C1127.28 286.602 1127.34 286.039 1127.34 285.485C1127.44 284.922 1127.49 284.424 1127.49 283.98V282.3C1127.37 281.977 1127.34 281.7 1127.34 281.479V189.887C1127.34 189.545 1127.37 189.203 1127.49 188.889V187.052C1127.49 186.591 1127.44 186.203 1127.34 185.871C1127.34 185.427 1127.27 184.984 1127.16 184.523C1127.06 183.858 1126.87 183.239 1126.66 182.685C1126.44 182.021 1126.1 181.402 1125.66 180.848C1125.44 180.627 1125.1 180.35 1124.67 180.027C1124.22 179.685 1123.73 179.408 1123.16 179.186C1122.26 178.743 1121.26 178.346 1120.13 178.005C1119.01 177.562 1117.91 177.118 1116.79 176.685C1115.56 176.343 1114.33 176.001 1113.11 175.66C1111.98 175.337 1110.99 175.06 1110.1 174.838L1106.23 173.49H1163L1159.32 174.995C1158.65 175.438 1157.87 175.771 1156.97 175.992C1156.07 176.214 1155.12 176.454 1154.13 176.675C1153.91 176.777 1153.68 176.897 1153.44 176.998C1153.22 176.998 1153 177.054 1152.78 177.174C1150.88 177.617 1149.03 178.171 1147.25 178.836C1145.59 179.399 1144.41 180.073 1143.74 180.857C1143.62 181.079 1143.46 181.301 1143.24 181.522C1143.12 181.642 1143.02 181.808 1142.9 182.021C1142.24 183.239 1141.84 184.523 1141.72 185.871C1141.62 187.108 1141.56 188.492 1141.56 190.053V189.877L1141.55 189.868Z" fill="white"/>
<path d="M571.294 138.233C570.269 137.596 568.534 135.749 567.906 134.651L567.407 133.727L567.906 133.386C568.654 132.924 572.817 131.742 575.199 131.336C579.649 130.579 586.776 130.672 591.023 131.576C593.59 132.121 595.953 132.86 596.073 133.183C596.258 133.681 594.337 135.906 592.186 137.67L591.198 138.445L589.758 138.103C586.148 137.226 579.363 137.245 575.439 138.122C572.734 138.74 572.134 138.759 571.294 138.223V138.233Z" fill="white"/>
<path d="M567.574 131.521C567.371 131.318 568.275 128.955 569.817 125.631L570.565 124.006L572.227 123.526C575.292 122.603 577.674 122.317 582.345 122.317C587.017 122.317 589.131 122.575 592.039 123.48C593.101 123.794 593.304 123.96 593.784 124.902C594.864 127.025 596.489 131.216 596.249 131.216C596.184 131.216 595.307 130.976 594.245 130.653C590.423 129.555 588.272 129.296 582.687 129.296C576.473 129.296 572.827 129.813 568.645 131.3C568.118 131.484 567.638 131.586 567.583 131.521H567.574Z" fill="white"/>
<path d="M540.606 130.884C529.426 129.241 520.267 122.935 516.085 113.98C514.137 109.77 513.519 106.788 513.537 101.498C513.556 96.0696 514.433 91.6197 516.556 86.5144C516.759 86.0158 516.796 85.6742 516.639 85.4711C516.519 85.2957 515.937 84.5664 515.337 83.8278C513.232 81.2428 512.392 78.6394 512.789 75.9713C512.992 74.688 513.269 74.6511 514.673 75.7312C517.101 77.5777 520.083 78.5378 523.471 78.5378C525.696 78.5378 526.831 78.3347 532.491 76.9776C537.578 75.7312 539.322 75.5097 543.311 75.6574C548.564 75.8605 552.367 76.7929 556.716 78.9994C565.449 83.4216 572.697 92.903 576.149 104.379C577.248 108.044 578.273 114.672 578.273 118.079C578.273 120.165 578.051 119.999 577.285 117.414C575.466 111.109 573.057 107.176 568.053 102.375C564.425 98.8854 560.658 96.5866 556.854 95.5249C549.718 93.5585 543.015 95.0633 537.928 99.8363C535.085 102.495 533.275 105.606 532.361 109.456C531.955 111.136 531.9 111.94 531.974 114.608C532.094 118.088 532.583 119.99 534.023 122.723C535.343 125.206 538.408 128.087 541.815 130.072C542.72 130.598 543.458 131.069 543.458 131.133C543.458 131.281 542.997 131.235 540.615 130.893L540.606 130.884Z" fill="white"/>
<path d="M620.676 130.367C620.796 130.265 621.775 129.582 622.864 128.862C626.936 126.176 629.539 122.917 630.961 118.781C631.736 116.537 631.866 111.21 631.219 108.607C629.678 102.477 625.006 97.3251 619.079 95.2202C616.651 94.3339 614.472 94.0569 611.509 94.2231C604.677 94.6016 598.611 97.3066 593.598 102.209C589.665 106.059 587.274 110.684 586.665 115.595C586.167 119.538 585.345 120.645 585.603 117.036C586.388 106.077 589.148 96.9004 593.7 90.0871C597.559 84.317 603.477 79.4702 609.487 77.1067C614.592 75.1034 620.039 74.3463 625.431 74.9002C627.979 75.1587 629.521 75.5003 634.469 76.9036C637.174 77.6607 641.679 77.7437 643.627 77.079C645.391 76.4789 646.711 75.7773 648.151 74.7156C648.816 74.1986 649.49 73.7739 649.637 73.7739C649.794 73.7739 650.016 74.4109 650.173 75.1957C650.671 77.8176 649.674 80.6057 647.274 83.3292L646.129 84.6309L646.711 85.9326C648.622 90.1979 649.637 94.6662 649.877 99.7716C650.321 109.391 646.406 117.857 639.002 123.452C634.691 126.702 629.142 129.037 623.095 130.164C620.953 130.561 620.372 130.607 620.685 130.339L620.676 130.367Z" fill="white"/>
<path d="M614.971 48.3118C598.464 48.9488 584.163 81.926 581.772 91.8782C576.39 78.5747 570.398 57.784 556.412 51.026C545.472 45.8376 534.716 50.5644 526.389 64.2926C524.404 67.5423 522.262 72.2046 522.742 72.2046C522.816 72.2046 523.905 71.706 525.142 71.0782C529.592 68.8348 533.294 67.5146 536.858 66.8684C539.729 66.3698 546.053 66.5268 548.897 67.1823C553.162 68.1886 557.113 69.8504 560.575 72.0938C570.38 78.4824 577.766 89.7456 581.569 104.028C581.689 104.508 582.114 104.332 582.114 103.788C582.114 102.929 583.896 97.0944 584.976 94.3524C587.062 89.1271 589.887 84.114 592.888 80.2734C594.79 77.8454 598.695 74.1064 601.123 72.38C605.333 69.398 610.198 67.2746 615.202 66.296C618.424 65.659 623.834 65.659 627.019 66.296C630.121 66.9145 633.371 68.0224 637.156 69.7765C638.901 70.5797 640.359 71.1982 640.406 71.1613C640.47 71.1429 639.926 69.9427 639.205 68.5394C633.638 57.5809 627.665 51.3307 620.714 49.1704C618.766 48.5888 616.864 48.2841 614.962 48.3118H614.971Z" fill="white"/>
<path d="M598.214 31.26C597.393 28.278 596.073 25.6469 594.189 23.3296C593.811 22.7203 593.414 22.1202 592.971 21.4832C588.862 15.5746 585.363 8.72437 582.871 1.85566C582.557 0.95091 582.234 0.110786 582.151 0.0184643L582.132 0C582.031 0 581.652 0.720107 581.246 1.68025C579.122 6.88717 575.679 13.4974 572.494 18.4643C570.823 21.0493 569.586 23.0526 568.607 24.6775C567.942 25.6838 567.342 26.7455 566.844 27.8441C565.764 29.9675 565.357 31.4262 565.007 33.4296C564.766 34.7775 564.646 36.1346 564.665 37.4732C564.646 38.8396 564.766 40.2059 565.007 41.5354C565.367 43.5387 565.764 44.979 566.844 47.1023C567.342 48.2287 567.942 49.2904 568.607 50.2874C569.586 51.9123 570.832 53.8972 572.494 56.5007C575.679 61.4491 579.122 68.0778 581.246 73.2939C581.671 74.3187 582.068 75.0572 582.151 74.9557C582.224 74.8357 582.548 74.014 582.871 73.0908C585.354 66.2406 588.862 59.3903 592.971 53.4633C593.414 52.8447 593.811 52.2169 594.189 51.6169C596.073 49.3181 597.393 46.6869 598.214 43.7049C598.898 41.5631 599.202 39.5597 599.119 37.4732C599.202 35.4145 598.898 33.3926 598.214 31.2692V31.26Z" fill="white"/>
<path d="M27.2534 343.029C29.8107 344.959 31.5741 347.599 32.5434 350.941H28.1674C27.3457 348.809 26.0255 347.119 24.1976 345.854C22.3788 344.59 20.1447 343.962 17.495 343.962C15.3994 343.962 13.516 344.469 11.8634 345.485C10.2017 346.51 8.89993 347.968 7.93979 349.861C6.97965 351.763 6.49958 353.988 6.49958 356.545C6.49958 359.102 6.97965 361.272 7.93979 363.155C8.89993 365.048 10.2017 366.488 11.8634 367.513C13.516 368.528 15.3994 369.036 17.495 369.036C20.1354 369.036 22.3696 368.408 24.1976 367.144C26.0255 365.879 27.3457 364.189 28.1674 362.057H32.5434C31.5648 365.399 29.8107 368.039 27.2534 369.969C24.7053 371.898 21.4649 372.868 17.5412 372.868C14.5315 372.868 11.8727 372.175 9.56464 370.79C7.25661 369.405 5.45634 367.476 4.16385 365.002C2.87135 362.518 2.2251 359.702 2.2251 356.545C2.2251 353.388 2.87135 350.507 4.16385 348.015C5.45634 345.522 7.25661 343.583 9.56464 342.208C11.8727 340.823 14.5315 340.13 17.5412 340.13C21.4649 340.13 24.6961 341.1 27.2534 343.029Z" fill="white"/>
<path d="M84.2063 340.454V372.6H80.061V340.454H84.2063Z" fill="white"/>
<path d="M157.943 365.011C156.632 367.43 154.712 369.295 152.173 370.624C149.634 371.944 146.588 372.609 143.033 372.609H132.823V340.463H143.033C146.588 340.463 149.644 341.109 152.173 342.401C154.712 343.694 156.632 345.55 157.943 347.968C159.254 350.378 159.901 353.231 159.901 356.517C159.901 359.804 159.245 362.601 157.943 365.02V365.011ZM152.33 365.629C154.546 363.469 155.654 360.432 155.654 356.508C155.654 352.584 154.555 349.538 152.349 347.359C150.142 345.19 146.929 344.1 142.701 344.1H136.959V368.861H142.701C146.893 368.861 150.105 367.781 152.321 365.629H152.33Z" fill="white"/>
<path d="M226.289 365.168H212.155L209.468 372.6H205L216.9 341.044H221.599L233.453 372.6H228.985L226.299 365.168H226.289ZM225.108 361.927L219.227 345.697L213.346 361.927H225.117H225.108Z" fill="white"/>
<path d="M304.726 365.011C303.415 367.43 301.494 369.295 298.956 370.624C296.417 371.944 293.37 372.609 289.816 372.609H279.605V340.463H289.816C293.37 340.463 296.426 341.109 298.956 342.401C301.494 343.694 303.415 345.55 304.726 347.968C306.037 350.378 306.683 353.231 306.683 356.517C306.683 359.804 306.027 362.601 304.726 365.02V365.011ZM299.112 365.629C301.328 363.469 302.436 360.432 302.436 356.508C302.436 352.584 301.337 349.538 299.131 347.359C296.924 345.18 293.712 344.1 289.483 344.1H283.741V368.861H289.483C293.675 368.861 296.888 367.781 299.103 365.629H299.112Z" fill="white"/>
<path d="M373.071 365.168H358.936L356.25 372.6H351.781L363.681 341.044H368.381L380.235 372.6H375.766L373.08 365.168H373.071ZM371.889 361.927L366.008 345.697L360.127 361.927H371.898H371.889Z" fill="white"/>
<path d="M451.368 372.6H447.223L430.531 347.202V372.6H426.386V340.454H430.531L447.223 365.897V340.454H451.368V372.6Z" fill="white"/>
<path d="M504.121 340.454V372.6H499.976V340.454H504.121Z" fill="white"/>
<path d="M571.571 365.168H557.437L554.75 372.6H550.282L562.182 341.044H566.881L578.735 372.6H574.267L571.58 365.168H571.571ZM570.38 361.927L564.499 345.697L558.618 361.927H570.38Z" fill="white"/>
<path d="M682.237 340.454V372.6H678.091V340.454H682.237Z" fill="white"/>
<path d="M750.545 340.454V343.833H741.47V372.609H737.325V343.833H728.25V340.454H750.545Z" fill="white"/>
<path d="M815.429 365.168H801.295L798.608 372.6H794.14L806.04 341.044H810.739L822.593 372.6H818.125L815.438 365.168H815.429ZM814.247 361.927L808.366 345.697L802.485 361.927H814.247Z" fill="white"/>
<path d="M872.88 369.369H884.282V372.6H868.735V340.454H872.88V369.369Z" fill="white"/>
<path d="M934.625 340.454V372.6H930.479V340.454H934.625Z" fill="white"/>
<path d="M1002.07 365.168H987.931L985.244 372.6H980.776L992.676 341.044H997.375L1009.23 372.6H1004.76L1002.07 365.168H1002.07ZM1000.88 361.927L995.003 345.697L989.122 361.927H1000.88Z" fill="white"/>
<path d="M1080.36 372.6H1076.22L1059.53 347.202V372.6H1055.38V340.454H1059.53L1076.22 365.897V340.454H1080.36V372.6Z" fill="white"/>
<path d="M1147.8 365.168H1133.67L1130.98 372.6H1126.51L1138.41 341.044H1143.11L1154.97 372.6H1150.5L1147.81 365.168H1147.8ZM1146.61 361.927L1140.73 345.697L1134.85 361.927H1146.61Z" fill="white"/>
</svg>
