<svg width="255" height="256" viewBox="0 0 255 256" fill="none" xmlns="http://www.w3.org/2000/svg">
<path d="M115.43 242.572C123.648 241.174 136.81 241.345 144.653 243.016C149.392 244.022 153.757 245.386 153.979 245.982C154.319 246.904 150.772 251.013 146.8 254.27L144.976 255.701L142.317 255.07C135.651 253.45 123.119 253.485 115.874 255.104C110.878 256.247 109.77 256.281 108.218 255.292V255.31C106.326 254.133 103.121 250.722 101.961 248.693L101.041 246.988L101.961 246.357C103.343 245.505 111.032 243.323 115.43 242.572ZM128.626 225.913C137.253 225.913 141.157 226.391 146.528 228.062C148.488 228.641 148.864 228.948 149.75 230.688C151.745 234.609 154.746 242.351 154.302 242.351C154.181 242.35 152.562 241.907 150.603 241.311C143.545 239.281 139.572 238.804 129.257 238.804C117.783 238.804 111.049 239.759 103.326 242.504C102.354 242.845 101.467 243.032 101.365 242.913H101.347C100.973 242.536 102.644 238.171 105.491 232.034L106.872 229.033L109.94 228.146C115.6 226.441 120 225.913 128.626 225.913ZM0.177233 140.315C0.552316 137.945 1.06329 137.877 3.65477 139.872C8.13871 143.282 13.6458 145.056 19.9028 145.056C24.0117 145.056 26.1089 144.68 36.56 142.174C45.954 139.872 49.1763 139.463 56.5415 139.735C66.2425 140.11 73.2672 141.833 81.2973 145.908C97.4258 154.076 110.81 171.588 117.186 192.782C119.215 199.551 121.107 211.794 121.107 218.086C121.107 221.94 120.698 221.633 119.283 216.858C115.924 205.213 111.474 197.949 102.234 189.082C95.5336 182.637 88.5774 178.391 81.5532 176.43C68.3743 172.798 55.9961 175.577 46.602 184.393C41.3509 189.303 38.0087 195.05 36.3208 202.16C35.5706 205.263 35.4686 206.747 35.605 211.675C35.8266 218.103 36.7305 221.616 39.3901 226.663C41.8282 231.25 47.4886 236.57 53.7798 240.236C55.4505 241.208 56.814 242.078 56.814 242.197C56.8133 242.47 55.9599 242.385 51.563 241.754L51.5464 241.736C30.8998 238.701 13.9865 227.055 6.26317 210.516C2.6658 202.74 1.52399 197.232 1.55809 187.462C1.59222 177.436 3.21201 169.217 7.13329 159.788C7.50827 158.868 7.57618 158.236 7.28661 157.861C7.06497 157.537 5.99049 156.19 4.88231 154.826C0.995103 150.052 -0.555862 145.243 0.177233 140.315ZM252.898 136.257C253.188 136.257 253.597 137.434 253.887 138.883C254.808 143.725 252.966 148.875 248.534 153.905L246.419 156.31L247.494 158.714C251.023 166.591 252.898 174.844 253.341 184.273C254.16 202.041 246.931 217.677 233.257 228.01C225.295 234.012 215.049 238.326 203.881 240.406C199.926 241.139 198.852 241.225 199.431 240.73L199.415 240.781C199.637 240.593 201.444 239.332 203.456 238.002C210.974 233.04 215.782 227.021 218.408 219.382C219.84 215.238 220.078 205.4 218.884 200.592C216.037 189.27 207.411 179.755 196.465 175.867C191.981 174.23 187.958 173.718 182.485 174.025C169.868 174.724 158.666 179.721 149.409 188.775C142.146 195.886 137.73 204.429 136.605 213.5C135.684 220.781 134.168 222.826 134.645 216.159C136.094 195.919 141.192 178.971 149.597 166.387C156.724 155.73 167.652 146.778 178.75 142.413C188.179 138.713 198.238 137.314 208.195 138.337C212.9 138.814 215.748 139.445 224.886 142.037C229.882 143.435 238.202 143.589 241.799 142.361C245.055 141.253 247.493 139.957 250.153 137.996C251.38 137.041 252.625 136.257 252.898 136.257ZM188.861 89.2295C192.373 89.1783 195.886 89.7412 199.483 90.8154C212.321 94.8055 223.352 106.349 233.632 126.589C234.962 129.181 235.967 131.398 235.848 131.432C235.758 131.497 233.066 130.356 229.847 128.874C222.857 125.634 216.856 123.588 211.127 122.445C205.245 121.269 195.254 121.269 189.304 122.445C180.064 124.253 171.079 128.175 163.304 133.683C158.82 136.871 151.608 143.776 148.096 148.261C142.555 155.354 137.338 164.614 133.485 174.265C131.49 179.329 128.2 190.106 128.2 191.691C128.199 192.697 127.415 193.02 127.194 192.134C120.17 165.756 106.53 144.953 88.4243 133.153C82.0309 129.01 74.7336 125.941 66.8569 124.082C61.6058 122.871 49.9268 122.582 44.6245 123.503C38.0435 124.697 31.2065 127.135 22.9888 131.278C20.7047 132.438 18.6933 133.358 18.5561 133.358C17.6696 133.358 21.6249 124.747 25.2905 118.745C40.6689 93.39 60.5316 84.6594 80.7348 94.2422C106.564 106.724 117.629 145.123 127.569 169.694C131.985 151.313 158.394 90.4066 188.877 89.2295H188.861ZM128.268 0.0341797C128.422 0.205266 129.019 1.75707 129.598 3.42773C134.201 16.1137 140.663 28.766 148.249 39.6787C149.068 40.8552 149.801 41.9635 150.5 43.0889C153.978 47.3685 156.416 52.2281 157.933 57.7354V57.7529C159.195 61.6746 159.757 65.4086 159.604 69.2109C159.757 73.0645 159.195 76.7648 157.933 80.7207C156.416 86.2282 153.978 91.0882 150.5 95.334C149.801 96.4423 149.068 97.6017 148.249 98.7441C140.663 109.691 134.184 122.343 129.598 134.995C129.002 136.7 128.405 138.217 128.268 138.439C128.115 138.627 127.381 137.263 126.597 135.37C122.676 125.736 116.316 113.494 110.434 104.354C107.365 99.5461 105.064 95.8799 103.256 92.8789C102.029 91.0375 100.921 89.0762 100 86.9961C98.0057 83.0743 97.2728 80.414 96.6079 76.7139C96.1646 74.2585 95.9429 71.7345 95.977 69.2109C95.943 66.7387 96.1647 64.2325 96.6079 61.7432C97.2558 58.043 98.0057 55.3486 100 51.4268C100.921 49.3977 102.029 47.4366 103.256 45.5781C105.064 42.5771 107.348 38.8769 110.434 34.1025C116.316 24.929 122.676 12.7204 126.597 3.10352C127.347 1.33018 128.046 0 128.234 0L128.268 0.0341797Z" fill="#CCC7C1"/>
</svg>
