<svg width="305" height="100" viewBox="0 0 305 100" fill="none" xmlns="http://www.w3.org/2000/svg">
<path d="M39.4279 44.5765C38.546 42.3757 37.31 40.4644 35.7203 38.8443C34.1295 37.2242 32.2486 35.9373 30.0787 34.9814C27.9072 34.0266 25.5329 33.5487 22.9536 33.5487C20.3748 33.5487 17.9994 34.0156 15.829 34.9505C13.658 35.8848 11.7992 37.1623 10.2521 38.7819C8.70436 40.402 7.48929 42.3027 6.60908 44.4831C5.72721 46.664 5.28738 49.0002 5.28738 51.4922C5.28738 53.9848 5.72721 56.332 6.60908 58.5334C7.48929 60.7353 8.72591 62.6455 10.3162 64.2656C11.9058 65.8857 13.7873 67.1737 15.9577 68.1279C18.1281 69.0838 20.5036 69.5618 23.0829 69.5618C25.6616 69.5618 28.0365 69.0938 30.2075 68.16C32.3779 67.2251 34.2372 65.9481 35.7849 64.328C37.3321 62.7079 38.546 60.8072 39.4279 58.6262C40.3081 56.4459 40.7491 54.1097 40.7491 51.6177C40.7491 49.1251 40.3081 46.7784 39.4279 44.5765ZM44.36 60.122C43.2416 62.8433 41.6735 65.242 39.6534 67.3184C37.6327 69.3966 35.2048 71.0471 32.3674 72.2715C29.5306 73.4971 26.3921 74.1099 22.9536 74.1099C19.5145 74.1099 16.387 73.507 13.5723 72.3036C10.7565 71.0985 8.33857 69.4679 6.31844 67.4124C4.29775 65.3563 2.74011 62.9676 1.6444 60.2463C0.548135 57.5267 0 54.6495 0 51.6177C0 48.5858 0.55808 45.7087 1.67645 42.9879C2.79371 40.2677 4.36185 37.8691 6.38309 35.7909C8.40322 33.715 10.8317 32.0639 13.669 30.8378C16.5058 29.6134 19.6438 29 23.0829 29C26.5214 29 29.6483 29.6023 32.4641 30.8069C35.2794 32.012 37.6968 33.6415 39.718 35.6981C41.7381 37.7541 43.2963 40.1434 44.3921 42.863C45.4883 45.5844 46.0364 48.4609 46.0364 51.4922C46.0364 54.5252 45.4773 57.4023 44.36 60.122Z" fill="#213B6A"/>
<path d="M133.421 34.2335H104.664V49.1248H130.39V53.611H104.664V68.8758H133.757V73.3619H99.3438V29.7479H133.421V34.2335Z" fill="#213B6A"/>
<path d="M163.72 35.2304L152.428 57.474H174.942L163.72 35.2304ZM188.918 73.3621H182.919L177.131 61.8353H150.239L144.381 73.3621H138.664L161.18 29.4358H166.403L188.918 73.3621Z" fill="#213B6A"/>
<path d="M229.428 29.7477H234.551V73.3623H230.36L200.292 37.5978V73.3623H195.169V29.7477H200.092L229.428 64.7016V29.7477Z" fill="#213B6A"/>
<path d="M251.934 73.3619H246.841V29.7473H251.934V73.3619Z" fill="#213B6A"/>
<path d="M304.999 73.3621H298.241L279.877 52.2402L269.707 61.6485V73.3621H264.312V29.7475H269.707V55.792L297.148 29.7475H304.111L283.631 48.8133L304.999 73.3621Z" fill="#213B6A"/>
<path d="M210.678 96.1799C209.319 96.7247 207.811 96.9977 206.152 96.9977C204.552 96.9977 203.12 96.7501 201.858 96.2556C200.595 95.7611 199.529 95.0881 198.662 94.2377C197.794 93.3868 197.129 92.3927 196.667 91.255C196.204 90.1184 195.973 88.9072 195.973 87.6214V87.57C195.973 86.3367 196.209 85.1521 196.681 84.0144C197.153 82.8772 197.829 81.8743 198.706 81.0063C199.584 80.1382 200.639 79.4442 201.872 78.9226C203.106 78.4021 204.475 78.1413 205.979 78.1413C206.808 78.1413 207.565 78.1938 208.249 78.2977C208.933 78.4021 209.57 78.559 210.158 78.7668C210.746 78.9751 211.305 79.2276 211.836 79.5221C212.365 79.8172 212.881 80.1559 213.382 80.5371L212.399 81.5533C211.609 80.9284 210.708 80.4079 209.695 79.9901C208.684 79.5735 207.415 79.3657 205.893 79.3657C204.658 79.3657 203.53 79.5823 202.509 80.0166C201.486 80.4493 200.605 81.0383 199.863 81.7848C199.12 82.5302 198.546 83.3972 198.142 84.3846C197.736 85.372 197.535 86.4124 197.535 87.5043V87.5568C197.535 88.7348 197.732 89.8278 198.128 90.8329C198.522 91.8379 199.097 92.7055 199.849 93.4332C200.6 94.162 201.511 94.7339 202.581 95.1494C203.651 95.566 204.861 95.7732 206.21 95.7732C206.846 95.7732 207.473 95.7174 208.09 95.6058C208.707 95.4925 209.291 95.3411 209.84 95.1505C210.389 94.961 210.905 94.7394 211.387 94.4896C211.868 94.2388 212.293 93.9747 212.66 93.6973V88.4806H205.893V87.2573H214.106V94.2703C213.181 94.9985 212.038 95.634 210.678 96.1799Z" fill="#88D3CF"/>
<path d="M234.551 83.6755C234.551 82.4388 234.044 81.4636 233.033 80.7497C232.02 80.0352 230.589 79.6777 228.738 79.6777H221.826V87.9086H228.652C229.499 87.9086 230.285 87.8124 231.009 87.6212C231.731 87.4295 232.354 87.1554 232.874 86.7985C233.395 86.441 233.803 86.0056 234.103 85.4917C234.401 84.9778 234.551 84.3899 234.551 83.728V83.6755ZM234.899 96.6853L228.449 89.1319H221.826V96.6853H220.322V78.4544H228.825C229.923 78.4544 230.916 78.5809 231.803 78.8318C232.69 79.0837 233.447 79.4401 234.074 79.8993C234.7 80.3596 235.187 80.9066 235.534 81.5404C235.882 82.1747 236.055 82.8732 236.055 83.6373V83.6887C236.055 84.4535 235.905 85.1342 235.606 85.7337C235.307 86.3327 234.893 86.8499 234.363 87.2825C233.832 87.7179 233.206 88.0688 232.483 88.3384C231.76 88.6081 230.974 88.7943 230.126 88.8982L236.807 96.6853H234.899Z" fill="#88D3CF"/>
<path d="M259.915 87.5699C259.915 86.441 259.697 85.3779 259.264 84.3789C258.829 83.3805 258.232 82.5135 257.47 81.7747C256.709 81.0371 255.798 80.4508 254.738 80.0165C253.677 79.5828 252.52 79.3656 251.267 79.3656C250.013 79.3656 248.861 79.5783 247.811 80.0033C246.76 80.4298 245.854 81.0106 245.093 81.7482C244.331 82.487 243.738 83.3512 243.314 84.3408C242.89 85.3293 242.678 86.3897 242.678 87.5174V87.5699C242.678 88.6988 242.895 89.7619 243.328 90.7598C243.762 91.7594 244.36 92.6263 245.122 93.3651C245.883 94.1027 246.794 94.689 247.855 95.1222C248.915 95.5559 250.071 95.7731 251.325 95.7731C252.578 95.7731 253.73 95.5615 254.781 95.1355C255.832 94.71 256.738 94.1293 257.5 93.3905C258.261 92.6528 258.854 91.7886 259.277 90.799C259.702 89.8094 259.915 88.7502 259.915 87.6213V87.5699ZM260.739 91.151C260.247 92.2887 259.557 93.2905 258.67 94.1585C257.784 95.0266 256.709 95.7173 255.446 96.229C254.183 96.7412 252.79 96.9976 251.267 96.9976C249.724 96.9976 248.332 96.7412 247.088 96.229C245.845 95.7173 244.78 95.031 243.893 94.1718C243.006 93.3126 242.321 92.3185 241.84 91.1902C241.357 90.0614 241.116 88.8723 241.116 87.6213V87.5699C241.116 86.3195 241.362 85.1254 241.854 83.9888C242.345 82.8511 243.035 81.8493 243.921 80.9802C244.808 80.1121 245.878 79.4225 247.132 78.9098C248.384 78.3975 249.782 78.1412 251.325 78.1412C252.848 78.1412 254.235 78.3975 255.49 78.9098C256.742 79.4225 257.812 80.1077 258.7 80.968C259.586 81.8272 260.271 82.8213 260.753 83.9496C261.234 85.0785 261.476 86.2675 261.476 87.5174C261.495 87.5351 261.495 87.5522 261.476 87.5699C261.476 88.8192 261.23 90.0144 260.739 91.151Z" fill="#88D3CF"/>
<path d="M283.049 92.4005C282.645 93.3989 282.076 94.2377 281.342 94.914C280.61 95.5915 279.738 96.1031 278.726 96.4507C277.713 96.7982 276.59 96.9712 275.357 96.9712C274.142 96.9712 273.029 96.8027 272.017 96.4639C271.004 96.1252 270.127 95.6219 269.385 94.9533C268.642 94.2847 268.068 93.4647 267.664 92.4928C267.258 91.5203 267.057 90.3914 267.057 89.1067V78.4546H268.561V88.9763C268.561 91.1467 269.162 92.8182 270.368 93.9896C271.573 95.1616 273.255 95.7478 275.415 95.7478C276.436 95.7478 277.361 95.6086 278.191 95.3307C279.02 95.0533 279.728 94.6367 280.317 94.0808C280.904 93.5249 281.358 92.8304 281.676 91.9971C281.994 91.1639 282.152 90.2008 282.152 89.1067V78.4546H283.656V88.9498C283.656 90.2522 283.454 91.4031 283.049 92.4005Z" fill="#88D3CF"/>
<path d="M303.495 84.1051C303.495 83.3719 303.346 82.7304 303.047 82.1806C302.749 81.6302 302.329 81.1722 301.79 80.8047C301.249 80.4384 300.604 80.1582 299.852 79.9659C299.1 79.7742 298.272 79.6781 297.365 79.6781H291.639V88.6637H297.192C298.136 88.6637 298.994 88.5587 299.765 88.3493C300.536 88.1398 301.197 87.8387 301.746 87.4458C302.295 87.0524 302.725 86.5767 303.033 86.018C303.341 85.4589 303.495 84.8394 303.495 84.1576V84.1051ZM304.364 86.6065C303.939 87.3353 303.366 87.9437 302.643 88.4294C301.919 88.9162 301.081 89.2798 300.127 89.5234C299.172 89.7666 298.165 89.887 297.105 89.887H291.639V96.6851H290.135V78.4547H297.48C298.598 78.4547 299.615 78.5807 300.532 78.8315C301.447 79.0841 302.238 79.4487 302.904 79.9256C303.568 80.4036 304.084 80.9843 304.45 81.6706C304.816 82.3568 305 83.1426 305 84.0272V84.0797C305 85.0345 304.788 85.8766 304.364 86.6065Z" fill="#88D3CF"/>
<path d="M66.4782 38.0998C59.0817 43.822 56.6621 53.59 60.9471 61.7695C65.2565 69.9953 74.704 73.7471 83.7653 70.7274C74.7012 76.2684 62.8435 72.6918 57.9699 63.531C53.1362 54.4448 56.6389 42.471 66.4782 38.0998Z" fill="#4571C0"/>
<path d="M54.7796 61.5938C50.6625 55.0399 51.5206 46.1527 56.8887 40.2282C62.2534 34.3076 70.592 31.9455 78.1907 34.3778C70.7981 33.1926 63.5994 35.5669 58.7933 41.0438C53.9187 46.5991 52.408 54.0984 54.7796 61.5938Z" fill="#3045A2"/>
<path d="M92.4261 62.911C87.6979 69.7068 78.3614 71.5407 71.1412 67.5248C65.6704 64.4819 61.7158 58.9569 61.5439 52.5103C62.833 59.0039 67.3457 64.2995 73.1724 66.4887C80.0086 69.0564 86.8442 67.527 92.4261 62.911Z" fill="#89D8D8"/>
<path d="M90.9973 42.1564C84.2954 30.8882 70.0772 27.6607 59.1543 35.4268C63.7377 31.034 70.3275 29.1382 76.6967 30.0754C83.2157 31.0352 89.1148 35.4992 90.9973 42.1564Z" fill="#242E61"/>
</svg>
