<svg width="622" height="1263" viewBox="0 0 622 1263" fill="none" xmlns="http://www.w3.org/2000/svg">
<path d="M0 1193.49C29.2893 1193.41 59.2427 1195.7 80.9506 1200.33C104.377 1205.3 125.95 1212.04 127.046 1214.98C128.731 1219.53 111.203 1239.84 91.5683 1255.92L82.5518 1263L69.406 1259.88C51.7622 1255.6 25.806 1253.66 0 1254.01V1193.49Z" fill="#EBE7DC"/>
<path d="M1.73923 1115.84C44.3787 1115.84 63.6764 1118.2 90.2208 1126.45C99.9116 1129.32 101.765 1130.83 106.147 1139.43C116.006 1158.8 130.837 1197.04 128.647 1197.04C128.057 1197.04 120.051 1194.85 110.361 1191.9C75.4734 1181.88 55.839 1179.52 4.85668 1179.52C3.21852 1179.52 1.59975 1179.53 0 1179.53V1115.84C0.575826 1115.84 1.15565 1115.84 1.73923 1115.84Z" fill="#EBE7DC"/>
<path d="M615.971 672.924C617.404 672.924 619.426 678.736 620.858 685.896C625.409 709.819 616.308 735.259 594.398 760.108L583.949 771.986L589.258 783.863C606.702 822.78 615.971 863.55 618.162 910.133C622.207 997.907 586.478 1075.15 518.894 1126.2C479.541 1155.85 428.895 1177.16 373.699 1187.44C354.149 1191.06 348.84 1191.48 351.705 1189.04L351.621 1189.29C352.717 1188.37 361.649 1182.13 371.592 1175.56C408.754 1151.05 432.519 1121.31 445.496 1083.58C452.575 1063.11 453.754 1014.5 447.855 990.747C433.782 934.815 391.142 887.81 337.042 868.604C314.88 860.518 294.992 857.991 267.942 859.507C205.583 862.961 150.219 887.643 104.461 932.372C68.563 967.499 46.7374 1009.7 41.1757 1054.51C36.6252 1090.48 29.1254 1100.59 31.4849 1067.66C38.6477 967.667 63.8439 883.936 105.388 821.769C140.613 769.122 194.629 724.898 249.487 703.333C296.088 685.054 345.806 678.146 395.019 683.2C418.277 685.559 432.351 688.675 477.518 701.479C502.209 708.387 543.332 709.145 561.113 703.08C577.208 697.604 589.258 691.203 602.404 681.516C608.471 676.798 614.623 672.924 615.971 672.924Z" fill="#EBE7DC"/>
<path d="M299.458 440.599C316.817 440.347 334.176 443.127 351.957 448.433C415.411 468.145 469.933 525.173 520.746 625.161C527.318 637.961 532.288 648.91 531.702 649.084C531.28 649.421 517.966 643.777 502.039 636.449C467.489 620.444 437.826 610.336 409.512 604.692C380.44 598.88 331.058 598.88 301.648 604.692C255.975 613.621 211.565 632.996 173.139 660.204C150.976 675.956 115.331 710.072 97.972 732.226C70.5848 767.269 44.7983 813.009 25.7536 860.686C16.7702 883.482 2.47025 929.705 0 943.665V825.011C29.8139 721.509 155.47 446.157 299.542 440.599H299.458Z" fill="#EBE7DC"/>
<path d="M0 0C0.80933 1.02305 3.71617 8.58533 6.53995 16.7213C29.2925 79.3933 61.2307 141.897 98.7301 195.808C102.775 201.62 106.398 207.096 109.853 212.656C127.044 233.799 139.094 257.806 146.594 285.014V285.098C152.83 304.473 155.612 322.921 154.853 341.706C155.612 360.743 152.83 379.022 146.594 398.565C139.094 425.774 127.044 449.781 109.853 470.756C106.398 476.231 102.775 481.959 98.7301 487.603C61.2307 541.683 29.2082 604.186 6.53995 666.69C3.63845 674.977 0.735299 682.366 0 683.647V0Z" fill="#EBE7DC"/>
</svg>
