<svg width="312" height="100" viewBox="0 0 312 100" fill="none" xmlns="http://www.w3.org/2000/svg">
<path d="M33.3592 79.843C31.0226 77.2357 29.525 75.5942 28.8691 74.9058C28.2404 74.1853 27.7725 73.6629 27.478 73.3311C27.2948 73.1528 27.0869 72.9449 26.8493 72.7022C26.6067 72.4645 26.2032 72.0485 25.6339 71.4444C25.0052 70.7907 24.3765 70.1272 23.7477 69.4686C23.119 68.8124 22.4755 68.1365 21.8195 67.4482C21.6957 67.2971 21.5621 67.1634 21.4111 67.0446C21.2601 66.8935 21.1264 66.7425 21.0076 66.5939C18.0744 63.5411 15.2922 60.7011 12.6561 58.0617C10.0248 55.4025 8.13869 53.5108 7.00006 52.4041V72.7492C6.97284 72.9275 6.95551 73.138 6.95551 73.3782V75.1312C6.98769 75.609 7.03224 76.0869 7.08917 76.5647C7.18076 77.0426 7.2971 77.4363 7.45056 77.7309C7.60155 78.033 7.88621 78.2856 8.30453 78.4935C8.75008 78.704 9.2179 78.9021 9.69563 79.0803C9.84662 79.1398 9.98029 79.1992 10.0991 79.2586C10.2154 79.2908 10.3392 79.323 10.458 79.3502L11.7155 79.7538H0L0.762383 79.3998C0.913375 79.3676 1.04704 79.3255 1.16833 79.266C1.31932 79.2017 1.46288 79.1423 1.61635 79.0828C2.12626 78.8748 2.60398 78.6471 3.05696 78.4118C3.53469 78.1692 3.86142 77.8844 4.04459 77.5576C4.19063 77.2877 4.28222 76.8198 4.3144 76.1661C4.3738 75.4778 4.41588 74.7424 4.44806 73.9625V46.5236H7.05452C7.38125 46.942 7.7674 47.4546 8.22037 48.0538C8.66839 48.6183 9.26741 49.2967 10.0149 50.0742C11.2724 51.3592 12.6511 52.7829 14.1462 54.3403C15.6709 55.8927 17.213 57.4823 18.77 59.1016C21.9457 62.4219 24.9037 65.5218 27.6587 68.394C30.4409 71.2686 32.1488 72.9869 32.7775 73.5564V51.4161C32.7775 50.8194 32.7602 50.2821 32.7305 49.8043C32.7033 49.2942 32.6265 48.9327 32.5102 48.7247C32.3592 48.4227 32.0572 48.1701 31.6117 47.9621C31.1934 47.7542 30.7404 47.5586 30.2651 47.3753C30.2057 47.3481 30.1587 47.3332 30.1315 47.3332C30.0993 47.3011 30.0721 47.2912 30.0399 47.2912C29.8889 47.2268 29.7379 47.1674 29.5894 47.1079C29.4433 47.0485 29.2948 46.9891 29.1414 46.9297L28.379 46.5211H40.0919L38.8345 47.0634C38.7429 47.1228 38.6563 47.1649 38.5672 47.1971C38.5078 47.2243 38.4335 47.2565 38.3419 47.2887C37.8642 47.4967 37.4286 47.7071 37.0424 47.9176C36.6835 48.0958 36.3543 48.336 36.0548 48.6307C35.9038 48.7817 35.785 49.1407 35.6934 49.7102C35.634 50.2475 35.5919 50.8343 35.5597 51.4632C35.5325 51.8247 35.5176 52.1837 35.5176 52.5378V79.843H33.3642H33.3592Z" fill="#333333"/>
<path d="M73.3378 48.4056C69.271 48.5566 66.0383 50.0719 63.6422 52.9465C61.2783 55.789 60.1075 59.1093 60.1397 62.9124C60.1991 66.5645 61.4887 69.9021 64.0011 72.9278C66.5135 75.9534 69.7165 77.5801 73.6052 77.8228H74.0557C74.1151 77.855 74.1745 77.8649 74.2339 77.8649H74.5087C78.1572 77.8649 81.3305 76.565 84.0261 73.9578C86.7167 71.3258 88.0657 67.9411 88.0657 63.8087C88.0657 59.6763 86.6845 56.1901 83.9345 53.0802C81.2117 49.963 77.8428 48.4229 73.8304 48.4526H73.3378V48.4056ZM73.3849 45.8925C73.4443 45.9246 73.5037 45.9395 73.5631 45.9395H74.2339C78.9344 45.9395 83.0038 47.482 86.4469 50.5646C89.89 53.6497 91.6672 57.7921 91.786 63.0015C91.8504 68.2407 90.0335 72.4474 86.3553 75.6167C82.677 78.7661 78.3354 80.3062 73.3354 80.2443C68.6348 80.2171 64.6447 78.5408 61.3526 75.2156C58.0877 71.8631 56.459 67.7901 56.459 63.004C56.459 58.2179 58.1174 54.3653 61.4368 51.1044C64.761 47.8435 68.7413 46.1178 73.3824 45.942V45.8949L73.3849 45.8925Z" fill="#333333"/>
<path d="M118.394 45.8505C119.468 45.8827 120.505 45.9693 121.493 46.1179C122.51 46.2367 123.347 46.3853 124.005 46.5685C124.065 46.5685 124.124 46.5858 124.184 46.6106C124.275 46.6106 124.349 46.6279 124.409 46.6552L125.307 46.8805L125.399 55.5464L123.513 50.9683C123.094 49.921 122.451 49.2352 121.58 48.9009C120.716 48.5394 119.592 48.3289 118.213 48.272H117.859C116.033 48.272 114.493 48.9009 113.233 50.1587C112.003 51.3893 111.391 52.8699 111.391 54.6056C111.391 55.7445 111.75 56.7275 112.471 57.5644C113.218 58.3765 114.023 59.0623 114.891 59.6318C115.369 59.9339 115.822 60.2013 116.24 60.439C116.686 60.6495 117.077 60.8302 117.406 60.9812C117.646 61.1001 117.869 61.2189 118.077 61.3403C118.32 61.4591 118.555 61.5779 118.797 61.6943C120.983 62.806 122.914 64.0168 124.587 65.3315C126.295 66.6537 127.176 68.5503 127.236 71.0362C127.3 74.0297 126.322 76.3175 124.32 77.9071C122.317 79.4917 119.755 80.2989 116.644 80.3311H116.193C116.042 80.3311 115.899 80.3137 115.748 80.289C115.236 80.2568 114.726 80.1974 114.221 80.1058C113.711 80.0463 113.243 79.9721 112.825 79.8804C112.471 79.7938 112.136 79.7195 111.842 79.6601C111.54 79.6007 111.3 79.5536 111.122 79.5264L109.188 78.9841L108.968 70.4519L110.493 74.406C110.911 75.5475 111.567 76.3497 112.471 76.83C113.394 77.3079 114.367 77.6248 115.387 77.7759C115.565 77.8031 115.731 77.8353 115.879 77.86C116.057 77.86 116.223 77.8774 116.374 77.9071C116.458 77.9071 116.535 77.917 116.599 77.9517H117.27C119.038 77.9517 120.59 77.4144 121.936 76.3348C123.31 75.2603 123.988 73.8787 123.956 72.2024V71.8904C123.864 70.3008 123.327 69.0926 122.34 68.2532C121.384 67.3817 120.228 66.6042 118.887 65.9159C118.495 65.7054 118.092 65.4974 117.671 65.287C117.285 65.0765 116.877 64.8512 116.458 64.6135C115.921 64.3114 115.401 64.0267 114.889 63.7593C114.411 63.4919 113.934 63.222 113.451 62.9472C111.958 62.0831 110.728 61.11 109.773 60.0305C108.817 58.9559 108.275 57.3663 108.156 55.2691V54.8235C108.156 52.0355 109.203 49.8641 111.297 48.3116C113.424 46.7196 115.788 45.9149 118.391 45.8827V45.8406L118.394 45.8505Z" fill="#333333"/>
<path d="M143.205 45.8084L145.091 46.5215H166.282L168.619 45.6722L168.527 55.7297L167.807 53.3503C167.78 53.3181 167.747 53.2909 167.715 53.2587V53.125C167.656 52.9467 167.596 52.7635 167.537 52.5877C167.505 52.4044 167.46 52.2287 167.403 52.0454C167.195 51.4487 166.968 50.8966 166.733 50.3865C166.49 49.8492 166.163 49.5051 165.745 49.354C165.594 49.2946 165.443 49.2476 165.294 49.2203C165.143 49.1881 164.992 49.1782 164.849 49.1782C164.698 49.1461 164.547 49.1312 164.396 49.1312H163.586L157.661 49.0866V75.4014C157.661 75.9065 157.678 76.3571 157.708 76.7459C157.767 77.1049 157.945 77.4664 158.245 77.8254C158.423 78.0681 158.737 78.276 159.183 78.4543C159.668 78.6053 160.156 78.739 160.666 78.8579C160.757 78.8901 160.831 78.9173 160.891 78.9495C160.982 78.9817 161.069 78.9941 161.158 78.9941C161.401 79.0584 161.621 79.1278 161.829 79.2194C162.039 79.2788 162.237 79.3382 162.416 79.4001L163.403 79.7542H148.185L149.218 79.4422C149.455 79.41 149.727 79.3506 150.024 79.264C150.356 79.1723 150.685 79.0807 151.012 78.9891C151.314 78.8703 151.614 78.7688 151.908 78.6771C152.21 78.5583 152.477 78.4345 152.72 78.3157C152.871 78.2562 153.005 78.1819 153.123 78.0903C153.242 78.0062 153.334 77.9294 153.391 77.87C153.482 77.7189 153.559 77.5852 153.619 77.4614C153.71 77.3104 153.77 77.1668 153.794 77.0158C153.826 76.8647 153.844 76.7137 153.844 76.5651C153.871 76.4141 153.886 76.2804 153.886 76.1615V75.7109C153.854 75.6243 153.844 75.55 153.844 75.4905V49.0842H146.883C146.732 49.1163 146.581 49.1287 146.438 49.1287C146.314 49.1287 146.195 49.1436 146.076 49.1758C146.017 49.203 145.943 49.2352 145.851 49.2599C145.792 49.2921 145.732 49.3243 145.673 49.3516C145.312 49.5917 145.027 50.0126 144.819 50.6094C144.611 51.211 144.428 51.8498 144.277 52.5431C144.25 52.6273 144.217 52.7362 144.19 52.8551C144.19 52.9467 144.173 53.0309 144.143 53.1225C144.116 53.2735 144.066 53.4246 144.01 53.5731C143.982 53.7242 143.95 53.8678 143.925 54.0188L143.43 55.549L143.205 45.8035V45.8084Z" fill="#333333"/>
<path d="M192.226 48.5467C192.134 48.574 192.043 48.5888 191.956 48.5888C191.897 48.5888 191.835 48.5715 191.775 48.5467H191.102C190.533 48.5467 189.981 48.5888 189.444 48.6804C188.934 48.7399 188.59 48.8265 188.411 48.9503C188.137 49.1286 187.976 49.3688 187.919 49.6634C187.887 49.9655 187.872 50.2799 187.872 50.6092V62.8703L189.983 62.8233C192.347 62.8233 194.382 62.1845 196.09 60.8945C197.793 59.5773 198.632 57.854 198.602 55.7321V55.1948C198.451 53.3675 197.793 51.8844 196.627 50.7454C195.488 49.5792 194.231 48.8934 192.857 48.6829C192.765 48.6507 192.664 48.6359 192.545 48.6359C192.454 48.6086 192.347 48.5938 192.228 48.5938V48.5517L192.226 48.5467ZM194.288 64.3039L193.389 64.4871L198.374 70.0086C198.912 70.6375 199.407 71.2169 199.857 71.7616C200.335 72.2667 200.798 72.7768 201.248 73.2868C201.367 73.4378 201.486 73.5889 201.61 73.7325C201.761 73.8563 201.894 73.99 202.013 74.141C202.374 74.5273 202.743 74.921 203.134 75.3072C203.553 75.6935 203.988 76.1144 204.434 76.565C204.701 76.8077 204.926 77.028 205.11 77.236C205.318 77.4192 205.528 77.5975 205.738 77.7783C205.857 77.8624 205.959 77.9565 206.05 78.0457C206.169 78.1298 206.303 78.2239 206.454 78.3131C206.724 78.4913 207.023 78.6894 207.357 78.8999C207.711 79.0781 208.164 79.3035 208.699 79.5709L209.912 80.1081L208.429 80.4696C208.37 80.5018 208.295 80.5117 208.204 80.5117H207.892C207.414 80.5117 206.813 80.4251 206.1 80.2443C205.407 80.0933 204.691 79.9002 203.939 79.665C203.102 79.3332 202.087 78.5681 200.887 77.3697C199.721 76.1713 198.508 74.8863 197.251 73.5121C197.219 73.4799 197.191 73.4651 197.159 73.4651C197.132 73.4378 197.115 73.4057 197.115 73.3784C196.847 73.1036 196.587 72.8362 196.352 72.5688C196.11 72.2989 195.874 72.0315 195.632 71.7616L189.08 64.7546H187.864V75.3963C187.864 75.9014 187.879 76.3521 187.907 76.7408C187.971 77.0998 188.149 77.4613 188.449 77.8203C188.627 78.063 188.944 78.271 189.389 78.4492C189.867 78.6003 190.362 78.734 190.872 78.8528C190.963 78.885 191.038 78.9123 191.097 78.9444C191.189 78.9717 191.275 78.989 191.367 78.989C191.607 79.0484 191.83 79.1227 192.038 79.2143C192.246 79.2737 192.446 79.3332 192.624 79.3926L193.612 79.7516H178.392L179.429 79.4396C179.666 79.4075 179.934 79.348 180.236 79.2564C180.562 79.1698 180.897 79.0781 181.223 78.989C181.55 78.8702 181.867 78.7686 182.169 78.677C182.463 78.5582 182.723 78.4344 182.931 78.3155C183.109 78.2561 183.243 78.1818 183.335 78.0902C183.454 77.9986 183.543 77.9293 183.602 77.8649C183.753 77.6866 183.855 77.496 183.914 77.2855C183.978 77.0429 184.02 76.8077 184.053 76.565V50.9262C184.053 50.535 184.02 50.1735 183.961 49.8466C183.929 49.5198 183.795 49.2004 183.557 48.9008C183.35 48.6631 183.006 48.4378 182.52 48.2273C182.075 47.9896 181.597 47.7643 181.087 47.5564C180.785 47.4326 180.486 47.331 180.191 47.2394C179.921 47.1206 179.664 47.0116 179.429 46.9274L178.441 46.5189H186.612C187.062 46.5511 187.481 46.566 187.869 46.566C188.256 46.5338 188.647 46.5065 189.035 46.4743H190.384C190.711 46.4471 191.055 46.4323 191.416 46.4323C191.748 46.4323 192.077 46.4471 192.404 46.4743C192.763 46.4743 193.139 46.4917 193.525 46.5164C193.768 46.5486 193.988 46.5808 194.196 46.608C194.439 46.6402 194.681 46.6675 194.917 46.6997C196.716 47.0859 198.374 48.0317 199.902 49.5272C201.426 51.0252 202.189 53.105 202.189 55.7692C202.189 57.8045 201.684 59.4064 200.662 60.5776C199.674 61.7438 198.585 62.6252 197.387 63.2269C196.85 63.4943 196.305 63.7196 195.77 63.8979C195.233 64.0811 194.738 64.2247 194.288 64.3485V64.3014V64.3039Z" fill="#333333"/>
<path d="M241.2 64.0787L236.667 52.3178L232.091 64.0787H241.2ZM238.91 46.5215C238.969 46.7641 239.029 46.9894 239.093 47.1974C239.153 47.3757 239.212 47.5589 239.271 47.7347C239.304 47.9427 239.346 48.1383 239.405 48.3215C239.464 48.4998 239.524 48.7078 239.583 48.9504C240.009 50.233 240.62 52.0182 241.425 54.2911C242.237 56.5368 243.083 58.8742 243.987 61.2957C244.046 61.4467 244.106 61.5978 244.165 61.7463C244.224 61.8973 244.284 62.0484 244.343 62.1945C245.422 65.1607 246.437 67.8991 247.4 70.4147C248.388 72.8982 249.044 74.5026 249.375 75.2182C249.462 75.4608 249.554 75.6688 249.643 75.8471C249.729 76.0303 249.821 76.2234 249.913 76.4339C249.972 76.5849 250.046 76.7458 250.138 76.9291C250.222 77.0801 250.316 77.241 250.405 77.4218C250.556 77.7239 250.851 77.9913 251.304 78.229C251.781 78.4716 252.291 78.6969 252.828 78.9049C252.947 78.9321 253.071 78.9817 253.19 79.0386C253.309 79.0956 253.425 79.1401 253.549 79.1723C253.635 79.1995 253.712 79.2491 253.769 79.306C253.861 79.3332 253.952 79.3654 254.044 79.3976L254.982 79.7517H241.695L242.861 79.306C243.044 79.2738 243.237 79.2144 243.447 79.1228C243.655 79.0386 243.883 78.9445 244.118 78.8554C244.536 78.7043 244.913 78.5286 245.239 78.3181C245.601 78.1101 245.826 77.8551 245.917 77.5555C245.917 77.5233 245.932 77.4961 245.96 77.4639V77.3302C245.96 77.1791 245.932 76.986 245.868 76.7434C245.809 76.5057 245.734 76.2803 245.648 76.0699C245.616 75.9535 245.583 75.8446 245.556 75.7579C245.524 75.6663 245.497 75.5747 245.465 75.4831C245.437 75.3642 245.39 75.2627 245.331 75.1711C245.304 75.0523 245.271 74.9458 245.239 74.8542L242.232 66.4135H231.145L228.004 74.8096C227.972 74.9012 227.945 74.9755 227.912 75.0349V75.1686C227.853 75.2875 227.794 75.4212 227.734 75.5722C227.702 75.7233 227.675 75.8743 227.643 76.0228C227.551 76.3497 227.477 76.6691 227.417 76.9637C227.358 77.2658 227.333 77.4911 227.333 77.6397V77.7734C227.452 78.0408 227.677 78.2661 228.004 78.4444C228.365 78.5954 228.752 78.7464 229.17 78.895C229.229 78.895 229.294 78.9049 229.353 78.9371C229.412 78.9371 229.454 78.9544 229.487 78.9817C229.638 79.046 229.781 79.103 229.935 79.1624C230.086 79.1896 230.219 79.2392 230.341 79.2961L231.549 79.7418H219.291L220.279 79.3877C220.487 79.3233 220.714 79.254 220.954 79.1624C221.224 79.0708 221.477 78.9817 221.717 78.895C222.227 78.7118 222.704 78.5038 223.15 78.2661C223.6 78.0234 223.902 77.7734 224.046 77.5035C224.138 77.3525 224.212 77.2039 224.271 77.0529C224.331 76.9018 224.39 76.7681 224.454 76.6493C224.514 76.5577 224.556 76.4661 224.588 76.3819C224.615 76.2903 224.647 76.1813 224.672 76.0649C224.737 75.9486 224.779 75.8297 224.806 75.7059C224.87 75.5871 224.93 75.4534 224.989 75.3023C225.375 74.463 225.751 73.5989 226.11 72.6951C226.497 71.7716 226.89 70.8258 227.276 69.87C227.484 69.3922 227.695 68.9118 227.905 68.429C228.113 67.9239 228.323 67.4114 228.534 66.9013C230.091 63.0388 231.499 59.4337 232.754 56.0813C234.011 52.6966 234.791 50.5425 235.086 49.614C235.177 49.3193 235.254 49.0445 235.313 48.8068C235.405 48.5642 235.479 48.3289 235.539 48.0863C235.539 47.9947 235.554 47.9204 235.581 47.861C235.613 47.7743 235.628 47.6827 235.628 47.5911C235.687 47.4401 235.729 47.2791 235.761 47.0984C235.821 46.9201 235.863 46.7369 235.895 46.5611L238.903 46.519V46.514L238.91 46.5215Z" fill="#333333"/>
<path d="M273.833 50.9212V75.3988C273.833 75.7256 273.865 76.0376 273.924 76.3396C273.984 76.6417 274.117 76.8918 274.328 77.1022C274.508 77.2855 274.746 77.4043 275.048 77.4637C275.35 77.5232 275.645 77.5702 275.944 77.5974H276.347L281.87 77.5553C282.078 77.5826 282.288 77.5974 282.499 77.5974C282.741 77.5702 282.976 77.5207 283.219 77.4637C283.521 77.4365 283.82 77.3721 284.117 77.2855C284.419 77.1938 284.669 77.0775 284.88 76.9264C285.298 76.6566 285.617 76.3124 285.825 75.894C286.033 75.4755 286.229 75.0076 286.412 74.5025C286.439 74.3787 286.471 74.2771 286.496 74.1855C286.555 74.0667 286.603 73.9602 286.63 73.8735L287.216 72.2072V79.7565H264.367L265.399 79.4396C265.635 79.4074 265.909 79.348 266.204 79.2613C266.538 79.1697 266.865 79.0781 267.191 78.9865C267.493 78.8676 267.793 78.7661 268.09 78.6745C268.389 78.5556 268.659 78.4318 268.899 78.313C269.05 78.2536 269.184 78.1793 269.303 78.0877C269.422 78.0035 269.513 77.9267 269.573 77.8673C269.632 77.7757 269.679 77.6841 269.706 77.5999C269.766 77.5083 269.825 77.4167 269.889 77.3251C269.949 77.1468 269.976 76.971 269.976 76.7878C270.008 76.6095 270.023 76.4263 270.023 76.2505V50.9236C270.023 50.832 270.033 50.7404 270.065 50.6562V50.1635C270.065 50.0447 270.048 49.9357 270.023 49.8466C270.023 49.7277 270.006 49.6089 269.976 49.4851C269.949 49.3068 269.899 49.1409 269.842 48.9973C269.783 48.8141 269.691 48.6482 269.575 48.5021C269.516 48.4377 269.424 48.3684 269.305 48.2768C269.187 48.1852 269.053 48.1109 268.902 48.0515C268.662 47.9326 268.392 47.8262 268.092 47.7395C267.798 47.6157 267.496 47.4969 267.194 47.378C266.867 47.2864 266.54 47.1948 266.206 47.1106C265.912 47.019 265.637 46.9447 265.402 46.8853L264.37 46.5238H279.585L278.598 46.9274C278.419 47.0512 278.211 47.1354 277.969 47.1948C277.731 47.2592 277.476 47.3186 277.206 47.378C277.147 47.4053 277.09 47.4374 277.031 47.4696C276.971 47.4696 276.907 47.4795 276.847 47.5142C276.343 47.633 275.847 47.7816 275.365 47.9599C274.917 48.1109 274.602 48.2917 274.424 48.5021C274.392 48.5615 274.347 48.621 274.291 48.6804C274.258 48.7126 274.231 48.7571 274.199 48.8141C274.021 49.1459 273.914 49.49 273.887 49.8466C273.855 50.1784 273.84 50.5498 273.84 50.9682V50.9212H273.833Z" fill="#333333"/>
<path d="M306.067 50.9212V75.3988C306.067 75.9039 306.081 76.3545 306.109 76.7433C306.173 77.1023 306.351 77.4638 306.651 77.8228C306.829 78.0655 307.146 78.2734 307.591 78.4517C308.069 78.6027 308.564 78.7364 309.074 78.8553C309.166 78.8875 309.24 78.9147 309.299 78.9469C309.391 78.9791 309.478 78.9915 309.569 78.9915C309.809 79.0509 310.03 79.1252 310.24 79.2168C310.448 79.2762 310.648 79.3356 310.827 79.3975L311.814 79.7516H296.594L297.631 79.4396C297.869 79.4074 298.136 79.348 298.438 79.2564C298.765 79.1697 299.099 79.0781 299.425 78.989C299.725 78.8701 300.022 78.7686 300.322 78.677C300.624 78.5582 300.891 78.4344 301.133 78.3155C301.277 78.2561 301.418 78.1818 301.537 78.0902C301.656 78.006 301.745 77.9293 301.804 77.8649C301.896 77.7213 301.97 77.5851 302.029 77.4613C302.116 77.3103 302.18 77.1667 302.208 77.0156C302.24 76.8646 302.255 76.7136 302.255 76.565C302.282 76.414 302.297 76.2803 302.297 76.1614V75.7108C302.265 75.6241 302.255 75.5498 302.255 75.4904V50.9262C302.255 50.8346 302.265 50.7429 302.297 50.6588V50.166C302.297 50.0422 302.282 49.9382 302.255 49.8491C302.255 49.7303 302.237 49.6114 302.208 49.4876C302.18 49.3093 302.131 49.1435 302.074 48.9949C302.015 48.8166 301.923 48.6507 301.807 48.5022C301.747 48.4427 301.656 48.3685 301.539 48.2818C301.421 48.1902 301.287 48.1159 301.136 48.0565C300.893 47.9376 300.626 47.8312 300.324 47.7396C300.022 47.6207 299.727 47.5019 299.428 47.3855C299.099 47.2939 298.767 47.2023 298.44 47.1107C298.138 47.024 297.871 46.9497 297.633 46.8903L296.596 46.5288H311.817L310.829 46.9324C310.651 47.0512 310.44 47.1404 310.2 47.1998C309.958 47.2592 309.705 47.3236 309.438 47.383C309.379 47.4103 309.319 47.4424 309.255 47.4697C309.195 47.4697 309.136 47.4845 309.077 47.5167C308.567 47.6356 308.072 47.7841 307.594 47.9624C307.148 48.1134 306.831 48.2942 306.653 48.5046C306.621 48.5641 306.579 48.6235 306.52 48.6829C306.487 48.7151 306.46 48.7597 306.428 48.8166C306.25 49.1435 306.143 49.4876 306.111 49.8491C306.084 50.1809 306.069 50.5523 306.069 50.9707V50.9237L306.067 50.9212Z" fill="#333333"/>
<path d="M153.172 37.073C152.897 36.9021 152.432 36.4069 152.264 36.1123L152.13 35.8647L152.264 35.7731C152.464 35.6493 153.58 35.3323 154.219 35.2234C155.412 35.0204 157.323 35.0451 158.462 35.2878C159.15 35.4339 159.783 35.6319 159.816 35.7186C159.865 35.8523 159.35 36.449 158.774 36.9219L158.509 37.1299L158.123 37.0383C157.155 36.8031 155.335 36.808 154.283 37.0433C153.558 37.2091 153.397 37.2141 153.172 37.0705V37.073Z" fill="#333333"/>
<path d="M152.176 35.2728C152.121 35.2183 152.364 34.5844 152.777 33.6931L152.978 33.2573L153.423 33.1286C154.245 32.881 154.884 32.8042 156.136 32.8042C157.388 32.8042 157.955 32.8735 158.735 33.1162C159.02 33.2004 159.074 33.2449 159.203 33.4975C159.492 34.067 159.928 35.1911 159.864 35.1911C159.846 35.1911 159.611 35.1267 159.327 35.04C158.302 34.7454 157.725 34.676 156.228 34.676C154.562 34.676 153.584 34.8147 152.463 35.2133C152.322 35.2629 152.193 35.2901 152.178 35.2728H152.176Z" fill="#333333"/>
<path d="M144.944 35.1019C141.946 34.6611 139.491 32.97 138.369 30.5683C137.847 29.4393 137.681 28.6395 137.686 27.2208C137.691 25.7649 137.926 24.5715 138.495 23.2023C138.55 23.0686 138.56 22.977 138.518 22.9225C138.486 22.8754 138.33 22.6798 138.169 22.4818C137.604 21.7885 137.379 21.0903 137.486 20.3747C137.54 20.0305 137.614 20.0206 137.99 20.3103C138.641 20.8055 139.441 21.063 140.349 21.063C140.946 21.063 141.25 21.0086 142.768 20.6446C144.132 20.3103 144.599 20.2509 145.669 20.2905C147.077 20.345 148.097 20.5951 149.263 21.1868C151.604 22.3728 153.548 24.9157 154.473 27.9933C154.768 28.9763 155.043 30.754 155.043 31.6677C155.043 32.2273 154.983 32.1827 154.778 31.4894C154.29 29.7983 153.644 28.7435 152.303 27.456C151.33 26.5201 150.32 25.9036 149.3 25.6188C147.387 25.0915 145.59 25.495 144.226 26.7751C143.463 27.4882 142.978 28.3226 142.733 29.3551C142.624 29.8057 142.609 30.0211 142.629 30.7367C142.661 31.6702 142.793 32.1802 143.179 32.9131C143.533 33.5791 144.354 34.3516 145.268 34.884C145.51 35.0251 145.708 35.1514 145.708 35.1687C145.708 35.2083 145.585 35.196 144.946 35.1043L144.944 35.1019Z" fill="#333333"/>
<path d="M166.412 34.9633C166.444 34.9361 166.706 34.7529 166.998 34.5597C168.09 33.8392 168.788 32.9652 169.169 31.856C169.377 31.2543 169.412 29.8257 169.239 29.1274C168.825 27.4834 167.573 26.1018 165.984 25.5372C165.333 25.2995 164.748 25.2253 163.954 25.2698C162.122 25.3713 160.496 26.0968 159.152 27.4116C158.097 28.444 157.456 29.6845 157.293 31.0017C157.159 32.059 156.939 32.3561 157.008 31.388C157.219 28.449 157.959 25.9879 159.179 24.1606C160.214 22.6131 161.8 21.3132 163.412 20.6794C164.781 20.1421 166.241 19.939 167.687 20.0876C168.37 20.1569 168.783 20.2485 170.11 20.6249C170.835 20.8279 172.043 20.8502 172.565 20.6719C173.038 20.511 173.392 20.3228 173.778 20.0381C173.956 19.8994 174.137 19.7855 174.177 19.7855C174.219 19.7855 174.278 19.9564 174.32 20.1668C174.454 20.87 174.187 21.6178 173.543 22.3482L173.236 22.6973L173.392 23.0464C173.904 24.1903 174.177 25.3887 174.241 26.7579C174.36 29.3379 173.31 31.6084 171.325 33.1088C170.169 33.9804 168.682 34.6068 167.06 34.9089C166.486 35.0153 166.33 35.0277 166.414 34.9559L166.412 34.9633Z" fill="#333333"/>
<path d="M164.883 12.9569C160.457 13.1277 156.623 21.972 155.982 24.6411C154.539 21.0732 152.932 15.4972 149.182 13.6848C146.249 12.2933 143.365 13.561 141.133 17.2428C140.601 18.1144 140.026 19.3647 140.155 19.3647C140.175 19.3647 140.467 19.231 140.799 19.0627C141.992 18.461 142.984 18.1069 143.94 17.9336C144.71 17.7999 146.405 17.842 147.167 18.0178C148.311 18.2877 149.37 18.7334 150.299 19.335C152.927 21.0484 154.908 24.0691 155.927 27.8995C155.96 28.0282 156.073 27.9812 156.073 27.8351C156.073 27.6048 156.551 26.04 156.841 25.3046C157.4 23.9032 158.158 22.5588 158.962 21.5288C159.472 20.8776 160.519 19.8748 161.17 19.4118C162.299 18.612 163.603 18.0426 164.945 17.7801C165.809 17.6093 167.259 17.6093 168.113 17.7801C168.945 17.946 169.816 18.2431 170.831 18.7136C171.299 18.929 171.69 19.0949 171.702 19.085C171.72 19.08 171.574 18.7581 171.381 18.3818C169.888 15.4428 168.286 13.7665 166.423 13.1872C165.9 13.0312 165.39 12.9495 164.88 12.9569H164.883Z" fill="#333333"/>
<path d="M160.391 8.38369C160.171 7.58395 159.817 6.87829 159.312 6.25682C159.21 6.0934 159.104 5.93247 158.985 5.76162C157.884 4.17699 156.946 2.33981 156.277 0.497673C156.193 0.255027 156.106 0.0297118 156.084 0.00495197L156.079 0C156.052 0 155.951 0.193127 155.842 0.45063C155.272 1.84709 154.349 3.61989 153.495 4.95197C153.047 5.64525 152.715 6.18254 152.453 6.61831C152.275 6.8882 152.114 7.17293 151.98 7.46758C151.691 8.03705 151.582 8.42826 151.488 8.96555C151.423 9.32704 151.391 9.69101 151.396 10.05C151.391 10.4165 151.423 10.7829 151.488 11.1395C151.584 11.6768 151.691 12.063 151.98 12.6325C152.114 12.9346 152.275 13.2193 152.453 13.4867C152.715 13.9225 153.049 14.4548 153.495 15.153C154.349 16.4802 155.272 18.2579 155.842 19.6569C155.955 19.9317 156.062 20.1298 156.084 20.1025C156.104 20.0704 156.191 19.85 156.277 19.6024C156.943 17.7652 157.884 15.928 158.985 14.3384C159.104 14.1726 159.21 14.0042 159.312 13.8432C159.817 13.2267 160.171 12.5211 160.391 11.7213C160.574 11.1469 160.656 10.6096 160.634 10.05C160.656 9.49789 160.574 8.95565 160.391 8.38617V8.38369Z" fill="#333333"/>
<path d="M310.819 21.3752C311.361 21.3479 311.812 22.0511 311.812 22.9276C311.812 23.8041 311.361 24.4999 310.819 24.4751H210.138C209.591 24.5023 209.143 23.7991 209.143 22.9276C209.143 22.0561 209.591 21.3479 210.138 21.3752H310.819Z" fill="#9D2829"/>
<path d="M0.995058 21.4989C0.452974 21.4717 0 22.1749 0 23.0464C0 23.918 0.450499 24.6261 0.995058 24.5989H101.682C102.224 24.6261 102.677 23.9205 102.677 23.0464C102.677 22.1724 102.226 21.4717 101.682 21.4989H0.995058Z" fill="#007867"/>
<path d="M7.30714 91.9976C7.99279 92.515 8.46556 93.2232 8.72547 94.1195H7.55219C7.33189 93.5475 6.97792 93.0944 6.48782 92.7552C6.00019 92.416 5.40118 92.2476 4.69078 92.2476C4.12889 92.2476 3.62393 92.3838 3.18086 92.6562C2.73531 92.931 2.3863 93.3222 2.12887 93.8298C1.87144 94.3398 1.74273 94.9365 1.74273 95.6224C1.74273 96.3082 1.87144 96.8901 2.12887 97.3952C2.3863 97.9028 2.73531 98.289 3.18086 98.5639C3.62393 98.8362 4.12889 98.9724 4.69078 98.9724C5.3987 98.9724 5.99772 98.804 6.48782 98.4648C6.97792 98.1256 7.33189 97.6725 7.55219 97.1006H8.72547C8.46309 97.9969 7.99279 98.705 7.30714 99.2225C6.62396 99.74 5.75514 99.9999 4.70315 99.9999C3.89621 99.9999 3.18334 99.8142 2.56452 99.4429C1.9457 99.0715 1.46302 98.554 1.11649 97.8904C0.769949 97.2244 0.59668 96.4692 0.59668 95.6224C0.59668 94.7756 0.769949 94.0031 1.11649 93.3346C1.46302 92.6661 1.9457 92.1461 2.56452 91.7772C3.18334 91.4058 3.89621 91.2201 4.70315 91.2201C5.75514 91.2201 6.62149 91.4801 7.30714 91.9976Z" fill="#333333"/>
<path d="M22.5762 91.307V99.9284H21.4648V91.307H22.5762Z" fill="#333333"/>
<path d="M42.3475 97.893C41.996 98.5417 41.4812 99.0418 40.8005 99.3984C40.1198 99.7524 39.3029 99.9307 38.35 99.9307H35.6123V91.3093H38.35C39.3029 91.3093 40.1222 91.4826 40.8005 91.8293C41.4812 92.1759 41.996 92.6736 42.3475 93.3223C42.699 93.9685 42.8723 94.7336 42.8723 95.6151C42.8723 96.4965 42.6965 97.2467 42.3475 97.8955V97.893ZM40.8426 98.0589C41.4366 97.4795 41.7336 96.6649 41.7336 95.6126C41.7336 94.5603 41.4391 93.7432 40.8475 93.1589C40.2559 92.577 39.3945 92.2849 38.2608 92.2849H36.7212V98.9255H38.2608C39.3846 98.9255 40.246 98.6358 40.8401 98.0589H40.8426Z" fill="#333333"/>
<path d="M60.6709 97.9351H56.8812L56.1609 99.9283H54.9629L58.1535 91.4653H59.4134L62.5917 99.9283H61.3936L60.6733 97.9351H60.6709ZM60.354 97.066L58.7773 92.7132L57.2005 97.066H60.3565H60.354Z" fill="#333333"/>
<path d="M81.7001 97.893C81.3486 98.5417 80.8337 99.0418 80.153 99.3984C79.4723 99.7524 78.6555 99.9307 77.7025 99.9307H74.9648V91.3093H77.7025C78.6555 91.3093 79.4748 91.4826 80.153 91.8293C80.8337 92.1759 81.3486 92.6736 81.7001 93.3223C82.0515 93.9685 82.2248 94.7336 82.2248 95.6151C82.2248 96.4965 82.0491 97.2467 81.7001 97.8955V97.893ZM80.1951 98.0589C80.7892 97.4795 81.0862 96.6649 81.0862 95.6126C81.0862 94.5603 80.7916 93.7432 80.2 93.1589C79.6085 92.5746 78.7471 92.2849 77.6134 92.2849H76.0738V98.9255H77.6134C78.7372 98.9255 79.5986 98.6358 80.1926 98.0589H80.1951Z" fill="#333333"/>
<path d="M100.025 97.9351H96.2357L95.5154 99.9283H94.3174L97.508 91.4653H98.7679L101.946 99.9283H100.748L100.028 97.9351H100.025ZM99.7085 97.066L98.1318 92.7132L96.555 97.066H99.711H99.7085Z" fill="#333333"/>
<path d="M121.017 99.9284H119.906L115.431 93.117V99.9284H114.319V91.307H115.431L119.906 98.1308V91.307H121.017V99.9284Z" fill="#333333"/>
<path d="M135.161 91.307V99.9284H134.05V91.307H135.161Z" fill="#333333"/>
<path d="M153.247 97.9351H149.457L148.737 99.9283H147.539L150.73 91.4653H151.99L155.168 99.9283H153.97L153.25 97.9351H153.247ZM152.928 97.066L151.351 92.7132L149.774 97.066H152.928Z" fill="#333333"/>
<path d="M182.916 91.307V99.9284H181.805V91.307H182.916Z" fill="#333333"/>
<path d="M201.233 91.307V92.2132H198.799V99.9309H197.688V92.2132H195.255V91.307H201.233Z" fill="#333333"/>
<path d="M218.628 97.9351H214.838L214.118 99.9283H212.92L216.111 91.4653H217.37L220.549 99.9283H219.351L218.63 97.9351H218.628ZM218.311 97.066L216.734 92.7132L215.158 97.066H218.311Z" fill="#333333"/>
<path d="M234.031 99.0618H237.088V99.9284H232.92V91.307H234.031V99.0618Z" fill="#333333"/>
<path d="M250.586 91.307V99.9284H249.475V91.307H250.586Z" fill="#333333"/>
<path d="M268.668 97.9351H264.878L264.158 99.9283H262.96L266.151 91.4653H267.41L270.589 99.9283H269.391L268.67 97.9351H268.668ZM268.351 97.066L266.774 92.7132L265.198 97.066H268.351Z" fill="#333333"/>
<path d="M289.661 99.9284H288.55L284.074 93.117V99.9284H282.963V91.307H284.074L288.55 98.1308V91.307H289.661V99.9284Z" fill="#333333"/>
<path d="M307.741 97.9351H303.952L303.231 99.9283H302.033L305.224 91.4653H306.484L309.662 99.9283H308.464L307.744 97.9351H307.741ZM307.422 97.066L305.845 92.7132L304.268 97.066H307.422Z" fill="#333333"/>
</svg>
