<svg width="889" height="1068" viewBox="0 0 889 1068" fill="none" xmlns="http://www.w3.org/2000/svg">
<g clip-path="url(#clip0_98_1080)">
<mask id="mask0_98_1080" style="mask-type:alpha" maskUnits="userSpaceOnUse" x="0" y="0" width="889" height="1068">
<rect width="889" height="1068" fill="#FFFDF8"/>
<rect x="0.5" y="0.5" width="888" height="1067" stroke="#9C2829" stroke-opacity="0.1"/>
</mask>
<g mask="url(#mask0_98_1080)">
<path d="M870.935 230.685C868.751 230.441 864.89 230.814 862.273 231.568C859.779 232.295 857.431 232.797 857.206 232.651C856.981 232.505 857.309 231.014 857.932 229.395C859.35 226.055 859.01 224.771 856.298 222.056C853.334 219.071 850.915 219.847 847.612 224.946C845.281 228.546 844.839 228.899 843.415 227.976C842.515 227.393 840.154 226.929 838.195 226.831C836.187 226.808 834.572 226.507 834.519 226.26C834.391 225.964 835.491 224.76 836.789 223.578C840.122 220.733 840.921 219.335 840.37 217.062C839.706 213.651 836.344 212.431 828.939 212.851C823.441 213.122 820.908 212.759 817.242 211.024C814.723 209.818 810.792 208.655 808.559 208.487C803.198 207.889 793.568 210.594 789.176 213.923C782.819 218.642 778.98 218.817 775.156 214.53C773.119 212.252 772.497 212.062 765.163 212.209C754.806 212.42 751.174 213.261 747.523 216.432C745.267 218.272 742.703 219.272 737.928 219.905C731.596 220.807 723.89 222.842 708.267 227.733C704.269 228.976 697.817 230.226 693.88 230.551C689.15 230.787 685.544 231.751 683.554 233.017C681.859 234.155 674.109 236.587 666.425 238.423C658.667 240.211 650.869 242.719 648.927 243.909C645.192 246.387 642.609 249.718 642.568 252.246C642.559 253.411 641.323 253.675 636.783 253.289C628.818 252.602 624.753 254.44 621.927 259.955C620.695 262.35 619.793 265.386 619.761 266.749C619.773 269.525 619.058 269.807 612.166 269.601C606.165 269.333 602.687 270.594 601.459 273.311C600.399 275.605 599.781 275.738 590.06 275.296C571.885 274.595 560.168 276.906 555.356 282.199C551.082 286.99 552.158 287.793 561.915 287.193C577.391 286.146 582.663 287.538 580.442 291.954C579.572 293.626 578.093 294.265 573.221 295.049C562.784 296.699 558.134 295.496 552.056 289.43C548.792 286.252 547.694 285.647 542.271 284.157C529.388 280.709 511.274 279.09 480.836 278.75C464.773 278.566 462.373 278.821 461.948 280.462C460.808 284.195 458.609 288.412 456.896 290.071C455.867 291.001 452.615 292.407 449.6 293.116C444.958 294.368 443.457 295.205 440.11 298.893C437.912 301.301 434.221 305.191 432.022 307.6C426.376 313.523 426.314 314.441 431.188 317.598C436.363 320.95 438.1 323.034 437.177 324.459C436.74 325.133 431.109 326.596 424.657 327.846C414.15 329.77 412.94 330.157 413.187 331.914C413.226 333.004 413.944 334.853 414.606 336.133C415.924 338.371 417.27 338.923 424.201 340.219C425.865 340.445 425.869 340.767 423.67 343.175C421.326 345.809 419.327 346.43 411.084 347.159C407.469 347.479 406.22 348.586 402.365 355.031C400.086 358.878 401.24 363.671 405.8 369.286C407.992 371.983 410.519 375.642 411.335 377.342C415.532 385.489 433.384 388.004 466.432 385.138C477.844 384.119 479.128 383.78 485.374 380.054C489.064 377.973 492.189 376.271 492.414 376.417C492.564 376.514 492.492 378.597 492.151 380.931C491.647 384.011 490.445 386.852 487.871 390.827C483.451 397.651 478.569 408.967 477.026 415.952C476.345 418.811 475.924 424.393 475.948 428.135C476.052 434.057 475.821 435.398 474.201 436.584C470.741 439.133 470.316 440.775 472.08 444.791C473.129 447.28 473.428 449.284 472.796 450.259C471.242 452.658 471.287 459.82 472.97 465.275C474.548 470.236 474.499 470.311 471.209 476.377C464.558 488.782 459.293 499.211 459.478 500.076C459.632 500.496 462.901 502.187 466.912 503.72C475.109 507.007 474.196 507.267 482.253 498.114C484.915 495.155 488.023 492.164 489.228 491.454C491.245 490.312 491.792 490.454 497.342 494.048C502.19 497.082 504.109 497.899 508.252 498.241C520.983 499.46 542.596 490.252 548.597 481.151C549.568 479.652 552.638 473.762 555.288 468.027C562.81 452.14 563.966 451.505 582.896 453.014C594.334 453.928 599.51 453.662 601.346 451.977C602.105 451.298 606.135 448.692 610.315 446.183C619.978 440.305 620.463 439.555 617.094 435.882C612.392 430.814 612.418 430.938 617.286 429.832C619.806 429.229 622.15 428.405 622.49 427.88C623.413 426.455 621.446 423.904 614.547 417.626C605.042 409.127 605.218 409.348 605.603 406.616C606.103 403.214 609.044 398.838 614.96 392.663C617.649 389.827 620.894 385.967 622.06 384.168C624.051 381.093 625.724 380.154 640.514 374.084C673.125 360.715 697.395 351.844 709.253 348.985C713.132 348.091 714.694 348.145 715.726 349.346C717.486 351.231 717.486 351.231 720.324 340.933C721.65 336.256 723.077 331.751 723.514 331.076C724.583 329.427 726.295 329.577 734.956 332.313C744.786 335.38 744.539 335.433 744.452 330.799C744.345 324.555 745.351 323.823 754.296 323.655L762.274 323.5L767.006 330.823C769.488 334.879 772.601 339.77 773.867 341.761C776.045 345.301 778.067 352.04 777.242 353.315C776.999 353.69 775.657 353.459 774.188 352.934C770.601 351.569 763.333 352.929 757.573 355.905C752.453 358.55 742.91 365.888 739.148 370.052C737.17 372.284 736.38 372.518 734.66 371.722C731.691 370.225 729.281 371.645 729.791 374.637C730.143 376.888 730.094 376.963 727.191 376.679C725.479 376.528 720.188 377.466 715.298 378.77C710.483 380.122 704.547 381.068 702.143 381.001C698.423 380.827 697.461 381.162 696.246 383.037C695.421 384.312 692.896 386.402 690.486 387.822C686.231 390.282 686.182 390.357 683.055 397.487C681.323 401.475 678.311 407.934 676.407 412.023C672.281 420.529 668.005 430.747 666.843 434.678C664.805 441.768 665.197 443.3 672.094 455.005C675.868 461.176 679.042 466.958 679.276 467.748C679.611 468.71 681.79 470.441 685.01 472.208C692.576 476.469 699.649 477.218 722.437 476.223C743.936 475.244 752.545 475.923 759.154 479.033C764.466 481.515 768.997 481.257 787.06 477.201C800.454 474.273 809.233 470.91 820.325 464.468C829.276 459.195 833.254 454.532 833.866 448.328C834.721 439.94 832.139 432.093 826.454 425.749L823.839 422.884L826.712 420.913C828.628 419.599 830.116 417.795 830.982 415.801C832.21 413.083 833.018 412.329 836.84 410.866L841.328 409.195L835.144 404.445C831.69 401.888 828.681 399.301 828.179 398.762C827.799 398.197 828.29 395.96 829.205 393.891C830.843 390.375 830.835 389.731 828.991 387.153C827.88 385.581 826.827 382.77 826.753 380.912L826.635 377.642L836.276 370.154L845.992 362.714L843.425 348.597C842.083 340.808 840.917 333.24 840.922 331.752C840.853 328.408 842.456 325.933 848.306 320.353L853.029 315.855L851.034 307.43C849.541 301.353 848.285 298.197 846.172 295.871L843.354 292.662L847.317 281.283C849.588 274.983 851.572 269.455 851.74 269.031C851.957 268.532 853.969 268.878 856.333 269.664C859.819 270.857 862.272 270.849 869.069 269.396L877.546 267.648L876.771 265.23C876.255 263.725 874.672 262.061 872.122 260.409C869.947 259 867.839 256.996 867.402 255.862C866.733 253.938 866.781 253.863 869.018 254.354C872.398 255.052 874.666 254.18 875.921 251.585C876.91 249.565 877.356 249.534 881.437 250.794C888.779 253.101 888.457 253.105 887.92 249.989C887.141 245.439 881.898 236.934 878.29 233.958C875.811 232.033 873.817 231.167 870.935 230.685Z" stroke="#9C2829" stroke-opacity="0.1" stroke-width="2"/>
<path d="M306.091 -52.3487C305.429 -51.8195 304.475 -50.8403 303.941 -50.0154C302.775 -48.2155 302.175 -48.6041 301.338 -51.914L300.633 -54.6061L294.103 -55.5358C285.19 -56.7313 275.769 -56.9783 274.37 -55.9684C271.302 -53.6973 272.628 -49.006 278.194 -42.3138C281.669 -38.1466 281.554 -37.4759 277.097 -37.1691C273.73 -36.9015 272.759 -37.2108 270.426 -39.3609C266.236 -43.2459 259.19 -47.4898 256.759 -47.6806C254.054 -47.9422 251.401 -46.1475 250.178 -43.1077C249.29 -40.915 249.466 -40.6943 253.516 -38.0713C259.44 -34.2339 261.279 -30.169 258.898 -26.4943C257.538 -24.3945 256.161 -23.5832 252.825 -22.8699C248.624 -21.9716 248.275 -22.0909 244.742 -25.0181C240.357 -28.6033 239.417 -28.4669 235.735 -23.9323L233.077 -20.6505L236.91 -17.529C242.649 -12.7474 245.329 -6.85964 246.992 4.54352C248.677 15.7481 251.242 22.3066 255.402 25.746C257.104 27.0617 261.993 29.3762 267.768 31.3072C279.371 35.4163 287.207 39.4267 289.703 42.6402C291.242 44.7017 292.164 45.086 295.663 45.4362C297.922 45.7285 305.93 47.8282 313.594 50.1307C329.296 54.9786 335.408 56.0625 341.418 55.1651C349.953 53.9864 355.864 47.4892 356.835 38.4304C357.499 32.4736 358.855 30.0516 361.706 30.0882C364.433 30.1513 366.522 26.9266 366.175 23.1888C365.916 20.4661 365.889 20.3425 362.937 20.1338L359.937 20L361.284 16.9338C362.874 13.4926 362.373 9.33566 360.185 6.96062C357.746 4.3163 356.038 4.48761 352.758 7.57941C349.355 10.6976 348.587 10.7326 349.091 7.65274C349.587 3.92866 348.229 2.41007 344.059 1.94482C341.95 1.7497 339.964 1.52815 339.567 1.48384C339.095 1.39096 339.162 0.795278 339.55 0.19533C341.153 -2.27946 337.846 -6.87017 331.723 -10.7297C324.625 -15.2206 322.136 -15.9808 319.801 -14.5124C317.246 -12.8676 316.416 -13.7241 318.871 -15.541C321.449 -17.3843 323.294 -20.2341 322.708 -21.4655C322.452 -22.0569 320.304 -23.342 317.983 -24.5256C313.744 -26.5265 313.62 -26.5001 308.774 -23.7841C304.1 -21.1695 303.53 -21.1124 300.76 -22.5875L297.764 -24.2084L303.004 -27.2022C310.971 -31.9422 314.738 -39.4023 312.685 -46.5871C311.513 -50.8591 308.104 -53.8128 306.091 -52.3487Z" stroke="#9C2829" stroke-opacity="0.1" stroke-width="2"/>
<path d="M730.421 500.877C723.336 497.352 710.439 492.938 702.436 491.16C699.453 490.506 693.227 490.093 688.717 490.152C678.237 490.39 676.718 491.749 678.555 499.432C679.761 504.472 679.739 504.67 676.622 508.826C671.584 515.782 673.03 518.316 682.535 519.256C685.835 519.584 685.91 519.632 686.068 522.183C686.248 524.535 686.005 524.91 683.692 526.18C680.593 528.005 675.71 535.381 672.295 543.282C669.485 550.086 666.74 552.352 662.641 551.614C656.852 550.525 653.681 545.065 652.923 534.567L652.339 527.908L647.164 524.557C644.315 522.711 641.359 520.371 640.601 519.241C639.34 517.572 638.669 517.457 634.547 518.726C625.857 521.295 603.664 535.343 601.711 539.508C601.084 540.805 600.306 543.814 599.992 546.272C599.602 548.681 597.574 554.606 595.48 559.318C592.013 566.973 591.708 568.265 592.47 571.527C593.434 575.132 593.509 575.181 600.625 579.151C608.888 583.652 608.888 583.652 605.099 589.501C603.739 591.601 601.364 593.789 598.61 595.411C594.871 597.567 593.966 598.471 591.696 602.962L589.086 607.979L585.601 606.785C582.19 605.641 582.115 605.592 582.567 602.265L582.992 598.815L576.176 595.039C565.566 589.231 556.24 584.894 548.422 582.172C540.105 579.234 539.726 578.669 536.285 567.711C534.914 563.416 533.464 560.561 532.189 559.735C528.814 557.549 513.949 554.202 503.478 553.275C497.897 552.853 488.145 551.966 481.769 551.456C475.393 550.945 468.143 549.976 465.708 549.463C463.122 548.852 458.264 548.793 454.208 549.466C447.778 550.518 447.258 550.5 448.326 548.85C450.123 546.075 449.512 542.911 446.451 538.268C444.859 535.959 443.567 533.845 443.466 533.673C443.413 533.425 444.746 533.011 446.476 532.641C448.254 532.197 450.174 531.205 450.806 530.23C452.603 527.455 453.221 517.955 451.717 514.852C449.959 511.158 449.235 510.795 445.029 511.372C440.625 511.926 438.824 514.378 440.499 517.38C442.148 520.257 441.733 520.734 437.276 521.041C428.76 521.699 418.202 517.947 414.418 512.942C413.258 511.445 412.49 511.48 408.377 513.393C403.747 515.611 403.672 515.562 401.361 513.214C400.104 511.867 398.798 510.596 398.498 510.402C398.123 510.159 398.675 508.813 399.598 507.388C401.25 504.838 401.175 504.79 397.197 500.084C394.881 497.413 391.512 493.74 389.703 491.93C387.868 489.997 386.457 488.231 386.603 488.006C386.872 487.755 388.002 486.996 389.282 486.335C390.562 485.674 392.372 483.865 393.467 482.339C395.264 479.564 395.212 479.317 392.072 474.303C390.273 471.328 388.355 468.701 387.83 468.361C387.23 467.973 390.46 466.765 394.931 465.615C403.378 463.422 415.573 457.907 421.364 453.568C424.481 451.222 425.372 451.16 432.917 452.002C443.838 453.221 444.258 451.257 435.172 442.604C433.214 440.697 431.503 438.737 431.37 438.119C431.238 437.501 433.808 435.014 437.613 432.262C443.554 428.02 451.616 419.189 450.416 418.412C448.616 417.246 439.446 417.268 437.182 418.463C434.794 419.684 434.124 419.569 430.749 417.383C428.724 416.072 424.679 413.771 421.833 412.247L416.619 409.615L409.517 412.361C405.695 413.824 402.05 415.508 401.511 416.011C399.847 417.594 402.101 419.374 405.794 419.424C410.604 419.559 415.642 421.97 418.963 425.718C420.498 427.457 421.561 429.104 421.366 429.404C420.686 430.454 412.065 428.808 408.174 426.927C405.928 425.792 402.823 423.354 400.459 420.759C398.271 418.384 396.189 416.503 395.818 416.582C395.448 416.661 390.657 423.565 385.265 431.889C375.815 446.314 375.356 447.188 375.354 450.806C375.273 454.054 374.575 455.625 370.835 461.399C366.075 468.748 364.051 474.996 364.22 482.131C364.289 485.476 364.073 485.975 361.764 487.567C358.718 489.639 354.65 489.346 353.874 486.928C353.099 484.509 351.418 484.804 349.572 487.654C348.697 489.004 346.914 490.936 345.589 491.994C343.528 493.533 342.959 493.59 340.409 491.939C337.859 490.287 337.401 489.351 336.503 483.341L335.474 476.713L329.062 477.244C325.571 477.538 322.01 478.105 321.123 478.489C319.891 479.075 319.168 478.713 317.285 476.854C312.433 471.689 297.035 465.549 289.926 465.841C286.533 465.985 286.727 465.685 282.155 476.031C280.901 478.625 279.996 479.529 277.653 480.353C274.938 481.256 274.193 481.093 270.889 478.633L267.21 475.931L270.783 468.771L274.307 461.686L269.258 464.058C266.451 465.433 260.665 468.285 256.282 470.45C246.409 475.339 242.481 476.308 231.776 476.4C222.606 476.423 216.891 477.192 216.065 478.467C215.823 478.842 215.055 478.877 214.455 478.488C213.105 477.614 190.818 473.399 188.74 473.649C187.725 473.737 186.975 473.251 186.366 472.218C185.3 470.25 172.568 463.281 168.716 462.489C165.883 461.932 163.495 463.153 154.927 469.314C145.477 476.18 140.583 477.162 130.73 474.293C127.695 473.392 126.645 472.712 125.256 470.747C122.932 467.432 120.774 467.312 112.856 470.168C105.804 472.839 103.787 472.172 100.516 466.54C98.1304 462.333 98.2642 459.333 101.126 454.586C102.287 452.464 103.378 450.615 103.352 450.492C103.4 450.417 101.384 449.75 98.8955 448.989C94.6908 447.756 94.3158 447.514 92.6361 444.19C90.5243 440.054 89.1301 439.577 84.196 441.278C79.5353 443.05 75.5923 448.48 75.3648 453.762C75.2311 456.763 74.7718 457.636 72.0346 460.547C70.2245 462.356 67.6952 464.124 66.2874 464.49C63.8911 465.067 63.2425 464.753 56.7846 459.931C53.0042 457.057 49.4488 454.328 48.9946 453.715C48.4918 453.176 48.1356 450.603 48.225 448L48.386 443.314L30.2947 432.128L12.2034 420.942L8.54918 421.982C6.54994 422.603 4.67854 423.52 4.33852 424.045C3.9985 424.57 4.69477 426.618 5.83673 428.635L7.99282 432.374L3.7702 431.661C1.48462 431.246 -1.2995 430.613 -2.42014 430.207C-3.54078 429.8 -4.70572 429.791 -4.99717 430.241C-6.01722 431.816 -5.92683 436.771 -4.72859 441.167C-3.47751 445.81 -3.3761 445.982 1.26497 448.349C5.45608 450.425 6.21028 451.233 8.52062 455.391C11.6201 461.124 12.5653 468.869 11.3297 478.501C10.5858 484.087 10.8364 486.166 12.2826 488.699C13.2482 490.496 14.2359 492.094 14.3373 492.266C14.3901 492.513 12.7173 493.452 10.5238 494.373C8.40522 495.343 6.53382 496.26 6.33952 496.56C6.14523 496.86 5.73792 499.79 5.2863 503.117C4.72817 507.759 3.51299 511.443 -0.0558976 518.925C-2.66183 524.263 -5.49785 530.943 -6.40369 533.656C-8.07393 538.536 -8.1225 538.611 -11.9181 540.198C-16.7731 542.269 -30.2444 550.577 -41.1958 558.281C-49.2737 564.013 -50.4565 564.525 -59.7241 566.506C-67.8795 568.25 -83.5675 570.118 -88.6509 569.913C-89.2951 569.921 -91.6813 567.524 -93.8996 564.703C-96.1929 561.834 -102.178 555.296 -107.228 550.109C-125.215 531.859 -128.337 528.133 -135.48 516.48C-142.549 504.876 -147.51 498.894 -151.397 497.335C-152.593 496.88 -154.551 494.973 -155.79 493.106C-156.954 491.287 -160.575 487.345 -163.738 484.338C-169.935 478.621 -171.628 476.14 -174.603 468.571C-175.961 465.243 -177.301 463.204 -179.176 461.99C-183.001 459.513 -184.316 459.406 -189.122 461.403L-193.337 463.144L-200.378 459.222C-210.816 453.313 -215.674 453.254 -222.441 458.771C-224.993 460.738 -225.183 461.36 -225.498 465.627C-225.711 468.257 -226.123 470.864 -226.56 471.539C-226.948 472.139 -230.201 473.545 -233.683 474.484C-237.139 475.545 -240.665 476.881 -241.548 477.587C-242.921 478.72 -247.276 479.199 -265.925 480.214C-270.333 480.446 -274.168 480.943 -274.363 481.243C-274.605 481.618 -274.902 483.555 -274.973 485.638C-275.179 490.721 -277.24 492.26 -284.866 492.857C-295.139 493.761 -298.272 494.819 -301.125 498.4C-303.637 501.457 -304.797 501.77 -336.501 508.807C-354.516 512.788 -369.463 516.307 -369.706 516.682C-369.949 517.057 -370.93 519.721 -371.906 522.708C-374.005 528.907 -374.608 533.946 -373.97 539.043C-373.575 542.706 -373.548 542.829 -376.351 544.527C-377.949 545.515 -381.952 546.435 -385.394 546.654C-391.956 547.088 -393.748 548.376 -393.565 552.859C-393.452 557.616 -396.868 559.768 -408.678 562.551C-415.201 564.075 -419.42 565.494 -419.261 566.236C-419.081 566.778 -411.649 574.041 -402.642 582.323L-386.335 597.25L-384.842 603.327C-384.08 606.588 -381.837 613.151 -379.866 617.834C-373.793 632.945 -372.8 642.424 -376.643 651.645C-379.55 658.598 -374.512 662.819 -352.559 671.822C-332.551 679.884 -321.663 686.085 -310.583 695.604C-304.342 700.924 -302.255 703.127 -301.758 705.152C-300.921 708.462 -299.447 709.31 -295.414 708.836C-293.013 708.581 -290.873 709.222 -286.581 711.47C-282.262 713.841 -277.435 715.264 -266.153 717.568C-257.977 719.245 -247.93 721.813 -243.871 723.271C-239.812 724.729 -234.986 726.152 -233.199 726.352C-230.145 726.732 -229.973 726.631 -228.48 723.34L-226.89 719.899L-219.627 720.026C-215.686 720.023 -206.782 720.574 -199.982 721.252C-189.312 722.202 -187.208 722.075 -184.824 720.531C-179.765 716.995 -176.873 712.694 -174.738 705.453C-171.87 695.601 -168.391 690.722 -161.964 687.539C-155.291 684.303 -143.053 682.01 -125.945 680.743C-118.492 680.247 -108.964 679.179 -104.86 678.431C-95.2659 676.768 -92.4861 677.078 -84.7788 680.792C-79.3657 683.447 -76.1844 684.123 -61.588 685.913L-44.7325 687.995L-37.2332 692.852C-33.1085 695.524 -29.0896 697.701 -28.4453 697.692C-27.7261 697.732 -25.6118 696.44 -23.8239 694.831C-20.7603 692.237 -20.266 692.132 -17.3498 693.382C-13.5115 695.016 -10.9694 694.214 -8.58932 690.54C-7.27782 688.515 -7.11848 687.447 -7.8991 686.516C-9.30608 685.072 -8.11306 681.586 -4.08142 675.362C1.40745 666.888 11.1795 661.826 20.3354 662.647L24.6774 663.011L30.7758 672.496C40.3401 687.314 40.2387 687.142 46.1154 689.245C48.8552 690.275 51.67 691.353 52.12 691.644C52.645 691.984 53.8526 695.215 54.8173 698.82C55.782 702.426 57.4481 706.592 58.4094 708.067C60.8612 711.677 72.9351 719.498 76.5578 719.822C78.0713 719.95 87.4889 718.066 97.445 715.679C113.602 711.772 115.804 711.495 117.409 712.961C119.619 715.137 126.824 716.504 139.272 717.009C144.629 717.285 150.979 717.671 153.238 717.964L157.381 718.305L160.292 722.852C161.861 725.359 164.56 728.917 166.219 730.63C169.236 733.861 169.315 734.232 169.477 746.473C169.744 761.017 169.023 764.595 164.085 773.533C158.278 784.143 159.017 789.412 170.725 816.37C175.966 828.494 177.799 834.046 179.586 843.614C182.544 859.263 184.352 862.882 191.123 867.055C195.596 869.846 196.527 870.875 198.237 874.644C199.895 878.166 200.097 880.319 199.287 886.501C198.388 893.477 198.498 894.294 201.029 898.275C202.523 900.734 206.171 904.799 209.082 907.537L214.45 912.397L212.975 915.168C210.82 918.988 208.19 928.143 208.944 928.951C209.297 929.393 211.33 931.348 213.364 933.304C216.076 936.019 217.395 938.257 218.439 942.233C220.879 950.627 219.936 958.001 213.97 977.237C211.12 986.569 211.292 986.467 203.892 985.401C200.812 984.896 200 985.328 196.672 988.495C194.641 990.48 190.668 993.655 187.918 995.6C183.107 999.084 182.934 999.185 183.653 1001.03C185.27 1005.28 190.644 1006.84 197.286 1004.97C200.349 1004.18 209.142 998.169 215.905 992.33C220.266 988.554 223.872 987.59 231.144 988.361C238.49 989.18 239.082 988.925 242.394 982.66C246.917 974.199 247.129 973.378 245.104 972.067C243.754 971.192 239.914 963.808 237.6 957.519C236.856 955.546 253.028 945.369 260.853 942.985L264.631 941.919L268.578 946.179C270.766 948.554 273.897 952.924 275.572 955.926C278.465 960.993 282.082 973.981 281.841 978.297C281.695 980.331 281.695 980.331 283.743 979.634C287.048 978.475 290.629 973.769 291.487 969.321C293.04 961.172 290.435 955.332 273.07 927.904C264.211 913.969 255.371 897.704 256.003 896.729C256.294 896.279 259.251 895.001 262.583 893.966C265.915 892.93 268.775 891.802 268.921 891.577C269.698 890.377 263.655 885.079 255.556 879.833C248.507 875.267 245.851 873.121 243.179 869.687C232.59 856.122 230.863 839.887 238.275 823.184C243.399 811.492 243.295 807.38 237.072 790.361C234.988 784.54 232.97 778.123 232.596 776.071C231.231 768.481 233.612 762.997 240.317 758.397C244.197 755.694 244.467 755.443 245.161 751.741C246.183 746.548 250.484 740.072 253.18 739.689C254.292 739.451 261.308 739.631 268.823 740.027L282.365 740.814L284.817 744.425C286.082 746.416 287.996 748.72 288.998 749.475C289.999 750.23 290.705 751.113 290.559 751.338C290.413 751.563 287.88 753.009 284.927 754.61L279.613 757.555L279.041 763.04C278.709 766.018 277.846 770.144 277.104 772.111C276.247 774.75 276.237 775.915 277.182 776.1C279.07 776.472 287.323 772.769 288.441 771.044C288.975 770.219 291.142 769.174 293.243 768.725L297.148 767.955L297.447 771.768C297.696 775.655 298.379 778.546 300.344 784.716C301.353 787.924 301.283 788.198 297.105 794.647C294.774 798.247 292.817 802.089 292.755 803.007C292.768 803.974 293.525 806.913 294.504 809.676C295.636 812.858 295.944 815.505 295.272 817.2C294.075 820.363 295.604 825.399 299.551 831.468C302.355 835.52 302.567 836.509 301.665 839.544L300.719 842.977L304.994 845.745C313.217 850.965 317.6 858.169 321.608 872.688C323.327 878.911 324.552 881.621 326.815 884.044C331.763 889.059 338.888 903.042 340.984 911.639C342.033 915.937 342.333 916.132 348.88 918.35C350.848 919.092 350.976 919.388 349.858 921.113C348.935 922.538 348.997 923.429 350.104 924.678C351.586 926.17 351.515 926.444 347.546 931.751C343.625 936.982 343.289 937.829 341.1 948.441L338.893 959.573L333.014 962.898L327.209 966.271L326.056 970.846C324.429 977.138 325.056 985.209 327.925 994.093C331.648 1005.77 331.964 1009.06 329.915 1013.37C328.541 1016.32 328.465 1018.08 329.219 1020.69C330.928 1026.27 334.037 1030.84 339.789 1036.59L345.311 1041.87L342.412 1041.91C340.801 1041.93 338.334 1042.78 336.811 1043.81C334.379 1045.43 333.99 1046.03 333.777 1048.66C333.427 1052.16 335.256 1057.39 338.004 1060.87C340.8 1064.28 351.797 1071.3 363.396 1076.9C376.291 1083.12 381.241 1086.33 380.269 1087.82C378.715 1090.22 374.474 1091.84 371.614 1091.16C367.462 1090.18 364.635 1088.13 356.978 1080.72C348.267 1072.31 340.842 1067.5 336.178 1067.14C331.638 1066.76 325.856 1069.93 322.844 1074.58C319.395 1079.91 320.078 1082.8 326.222 1090.08C329.52 1094.02 331.218 1096.83 331.036 1098.09C331.001 1099.13 328.417 1104.27 325.312 1109.4C320.539 1117.59 319.841 1119.16 320.268 1121.46C320.884 1124.94 323.283 1128.31 326.102 1129.71C328.846 1131.06 334.42 1129.03 336.46 1125.88C337.237 1124.68 338.094 1123.85 338.469 1124.09C338.769 1124.29 339.23 1129.16 339.554 1134.91C339.878 1140.65 340.339 1145.53 340.714 1145.77C341.914 1146.55 345.674 1144.19 348.504 1140.81C350.041 1138.93 351.63 1137.3 351.952 1137.3C352.323 1137.22 353.438 1140.92 354.539 1145.47C355.723 1150.7 357.059 1154.23 358.109 1154.91C359.759 1155.98 359.904 1155.75 363.296 1149.86C367.487 1142.57 367.802 1138.3 364.924 1130.58C361.302 1120.89 361.314 1121.86 364.559 1118L367.61 1114.44L372.399 1122.33C379.264 1133.59 384.686 1136.89 388.086 1131.64C389.786 1129.01 388.556 1125.98 383.079 1118.49L378.965 1112.85L382.559 1107.3L386.202 1101.67L387.574 1104.16C388.385 1105.54 390.352 1108.09 392.037 1109.92C393.946 1111.91 395.829 1115.57 397.173 1119.75C399.729 1127.47 401.418 1129.63 405.089 1129.88C409.404 1130.12 410.001 1128.37 408.429 1120.12C407.58 1115.84 407.304 1111.83 407.741 1111.15C409.295 1108.75 406.334 1100.34 400.342 1089.54C393.031 1076.5 391.001 1069.12 392.263 1059.61C393.281 1052.29 394.757 1047.71 395.882 1048.44C396.257 1048.68 398.572 1051.35 400.892 1054.34C406.034 1060.87 407.335 1061.82 409.525 1060.57C412.133 1059.17 411.363 1055.27 406.266 1044.73C403.82 1039.63 401.427 1032.97 400.916 1029.98C399.869 1023.87 400.447 1022.65 407.794 1014.1C413.556 1007.51 414.244 1007.1 416.269 1008.41C418.594 1009.92 419.037 1015.32 417.954 1028.99C416.694 1044.24 418.862 1050.76 424.26 1048.51C427.168 1047.3 429.743 1043.33 429.095 1041.21C428.192 1038.49 428.221 1033.19 428.97 1033.67C429.42 1033.96 430.659 1037.64 431.756 1041.86C433.918 1049.87 435.03 1051.44 438.595 1051.19C440.899 1051.09 440.885 1051.93 438.743 1036.17C437.803 1028.75 440.229 1030.43 445.047 1040.57C448.336 1047.49 449.447 1049.06 450.506 1048.58C453.733 1047.05 454.184 1043.72 452.119 1035.57C451.127 1031.84 451.088 1030.75 451.957 1032.7C453.777 1037.28 455.608 1037.09 461.96 1032.05C464.781 1029.83 468.273 1027.72 469.68 1027.36C472.62 1026.6 482.265 1028.8 485.49 1030.89C486.689 1031.67 490.85 1033.3 494.834 1034.71C500.384 1036.49 503.23 1038.02 507.685 1041.33C511.064 1043.84 514.236 1045.68 515.577 1045.91C516.844 1046.09 518.039 1046.55 518.118 1046.92C518.149 1047.36 515.205 1049.61 511.594 1052.06C505.132 1056.28 502.466 1058.92 503.665 1059.7C505.165 1060.67 523.452 1060.38 527.874 1059.3C531.629 1058.44 532.958 1057.7 533.85 1055.83C534.963 1053.78 535.802 1053.47 540.907 1053.48C550.425 1053.58 554.551 1054.44 567.99 1058.67C583.048 1063.53 585.382 1063.87 588.622 1061.5L591.028 1059.76L584.974 1049.87C578.717 1039.65 577.122 1035.21 572.03 1013.81L569.877 1004.64L575.266 1001.75C580.236 999.005 581.092 998.176 585.883 991.272C589.433 986.12 593.438 981.581 598.603 976.73L606.143 969.69L612.486 956.446C616.297 948.589 619.225 943.247 619.87 943.238C620.39 943.256 626.595 942.059 633.665 940.676L646.467 938.004L646.972 934.924C648.83 923.672 650.264 915.871 650.511 915.819C650.758 915.766 652.438 917.28 654.322 919.139C656.457 921.267 658.106 922.335 658.848 922.177C659.466 922.045 662.401 919.156 665.505 915.843C675.496 904.856 685.325 900.364 696.003 901.957C700.001 902.524 702.145 903.487 708.444 907.567L716.094 912.521L727.716 895.564C734.11 886.186 746.217 868.479 754.506 856.176L769.722 833.669L766.946 833.681C763.006 833.684 755.745 828.129 747.365 818.55C735.616 805.297 732.961 803.152 725.795 801.066C718.008 798.79 717.708 798.595 714.741 793.48C713.347 791.193 710.975 787.953 709.466 786.337L706.675 783.252L710.096 779.613C713.345 776.075 713.443 775.925 712.672 772.02C712.117 769.425 712.516 765.851 713.581 762.069C715.265 756.347 715.01 753.946 712.062 746.501C711.343 744.652 711.82 743.257 715.769 736.34L720.37 728.249L723.13 734.508C724.637 737.933 726.044 741.185 726.202 741.927C726.7 743.953 728.866 744.717 731.404 743.593C732.834 743.029 734.961 742.703 736.254 743.008C741.2 744.083 743.746 734.235 740.78 725.501C739.851 722.663 737.973 717.508 736.664 714.105C735.28 710.654 734.003 705.888 733.898 703.584L733.569 699.326L741.177 688.072L748.785 676.819L748.16 672.689C747.474 667.667 745.363 663.531 738.007 652.699C734.696 647.786 731.874 642.445 731.041 639.458C729.429 633.729 724.637 604.969 724.392 599.595L724.221 596.078L728.905 592.298C744.92 579.57 744.381 570.705 726.715 556.069C723.883 553.702 720.589 550.078 719.447 548.061L717.291 544.322L723.998 543.664C731.275 542.948 736.483 541.317 736.832 539.627C736.974 539.08 736.379 537.205 735.638 535.554C734.898 533.903 733.8 531.489 733.214 530.258C731.962 527.424 732.739 526.224 736.349 525.582C737.907 525.313 739.902 524.37 740.882 523.514C741.862 522.659 743.972 521.044 745.667 519.907C748.615 517.984 748.686 517.711 748.21 515.486C747.761 513.386 741.026 506.362 737.806 504.596C737.157 504.282 733.84 502.665 730.421 500.877Z" stroke="#9C2829" stroke-opacity="0.1" stroke-width="2"/>
<path d="M246.347 219.698C244.084 219.083 240.761 218.954 238.982 219.399C235.425 220.288 229.652 224.107 228 226.657C227.029 228.157 227.205 228.377 232.146 230.939C237.811 233.863 244.795 235.406 249.147 234.605C252.187 234.019 255.64 230.826 256.81 227.539C257.429 225.598 257.2 225.13 253.927 223.116C251.977 221.854 248.562 220.387 246.347 219.698Z" stroke="#9C2829" stroke-opacity="0.1" stroke-width="2"/>
<path d="M265.5 241.899C261.459 239.92 254.451 240.385 237.496 243.881L224.866 246.452L224.069 242.423C222.982 237.035 220.335 233.724 216.157 232.614C214.441 232.141 212.804 232.039 212.561 232.414C212.318 232.789 211.871 236.438 211.555 240.705C211.152 245.766 211.472 249.38 212.517 251.548C213.359 253.37 213.949 254.924 213.901 254.999C213.852 255.074 209.585 254.759 204.423 254.183C193.378 252.991 185.069 254.315 181.003 257.962C177.012 261.658 177.1 262.673 181.749 265.685C188.949 270.348 192.239 273.65 191.268 275.15C190.831 275.825 185.194 278.775 178.812 281.56C172.43 284.346 166.763 286.85 166.123 287.181C165.236 287.564 165.686 287.856 167.949 288.47C177.475 291.021 181.088 292.509 181.379 293.869C181.802 295.846 177.468 297.935 172.119 298.304C167.464 298.588 165.892 299.7 166.279 302.718C166.899 308.336 170.538 311.757 179.776 315.08C187.321 317.731 189.844 319.259 190.54 321.307C191.576 324.639 187.757 328.233 180.334 330.983L177.399 332.063L176.037 337.781C173.641 347.726 171.412 349.689 160.41 351.718C152.4 353.237 152.025 352.994 145.363 342.078C142.854 337.898 140.485 334.981 139.541 334.795C137.578 334.375 135.171 337.926 133.876 343.048L133.009 346.852L129.714 345.037C124.87 342.325 123.682 344.323 126.512 350.308C129.06 355.578 128.755 356.871 124.174 359.013C119.668 361.205 114.161 360.831 103.686 357.773C98.586 356.279 94.0106 355.125 93.5163 355.231C91.5656 355.777 83.717 361.978 83.5091 363.121C83.2748 364.14 86.0052 366.334 94.3116 372.247L105.419 380.08L105.89 383.791C106.307 387.255 106.66 387.697 111.336 390.832C114.062 392.704 116.166 394.386 116.021 394.611C115.486 395.436 107.742 396.381 104.565 396.027C102.01 395.863 101.233 395.253 96.2275 389.669C93.2329 386.239 90.1454 383.281 89.3247 383.069C87.6834 382.644 78.1951 384.802 74.4259 386.513C72.7002 387.205 67.7319 386.329 52.81 382.412C33.4626 377.439 33.3876 377.39 33.766 379.765C34.7427 386.146 42.0034 391.7 56.7217 397.082C61.9764 398.995 67.3103 401.279 68.5851 402.104C70.31 403.222 70.7685 404.157 70.5205 406.019C70.2905 407.361 70.4311 408.623 70.806 408.866C71.106 409.06 73.833 409.123 76.7808 409.01C87.5789 408.445 91.5936 410.3 94.088 417.132C95.807 421.546 98.1053 422.928 108.553 425.863C113.204 427.065 117.285 428.325 117.66 428.568C117.96 428.762 118.263 431.088 118.324 433.788C118.51 440.403 120.489 445.73 123.128 446.587C125.568 447.422 128.79 445.571 131.121 441.971C132.53 439.796 132.998 439.567 133.928 440.595C139.719 447.433 147.474 452.882 156.342 456.284C164.438 459.399 177.905 460.137 179.605 457.513C180.625 455.938 179.118 452.513 175.638 448.023C173.698 445.596 172.079 443.163 171.947 442.546C171.815 441.928 174.088 441.377 177.084 441.189C180.032 441.075 183.545 440.583 184.829 440.244C186.237 439.878 188.024 440.077 188.849 440.612C192.823 443.186 207.994 443.431 214.729 441.087C217.32 440.21 217.81 439.782 218.248 437.298C218.964 433.398 216.885 426.089 214.018 422.955C212.735 421.485 208.103 417.953 203.678 415.087C198.954 412.027 195.773 409.541 196.065 409.091C196.308 408.716 201.044 405.183 206.544 401.294C223.808 389.268 227.385 382.43 223.782 368.599L221.822 360.942L224.409 357.934C227.583 354.348 227.319 353.112 222.942 351.981C219.734 351.181 217.269 348.413 218.289 346.838C218.58 346.388 222.165 343.813 226.217 341.008C235.305 334.865 238.118 332.003 238.909 328.151C239.392 325.269 237.651 321.055 235.401 319.597C234.651 319.112 233.663 317.514 232.997 315.912C232.407 314.358 231.239 312.217 230.405 311.039C228.892 309.101 228.941 309.026 231.691 307.081C236.825 303.593 242.897 301.778 260.965 298.044C278.043 294.522 281.817 293.134 282.418 289.904C283.214 286.374 274.105 279.729 258.942 272.569C254.204 270.351 250.039 268.399 249.589 268.108C247.939 267.039 262.308 264.742 276.001 263.817C284.024 263.265 291.053 262.602 291.473 262.448C291.817 262.245 292.228 261.446 292.241 260.604C292.299 259.364 289.895 257.487 280.494 251.292C274.019 246.991 267.247 242.818 265.5 241.899Z" stroke="#9C2829" stroke-opacity="0.1" stroke-width="2"/>
<path d="M139.421 260.196C133.645 258.265 130.146 257.915 126.294 258.933C124.268 259.43 122.406 259.182 120.831 258.162C117.831 256.219 113.727 256.968 114.008 259.492C114.07 260.383 115.207 262.078 116.487 263.226C118.445 265.133 118.577 265.751 117.411 267.551C116.294 269.276 115.381 269.536 112.102 269.009C108.899 268.531 108.025 268.072 107.487 266.765C104.689 259.417 95.9554 251.205 89.3151 249.459C85.0618 248.301 78.1599 249.26 76.9942 251.06C76.4598 251.885 76.4548 253.372 76.8647 254.383C77.301 255.517 77.4766 257.547 77.2729 259.012C76.7242 262.489 74.8221 262.96 69.2189 260.928C62.1951 258.294 61.6744 258.276 61.0429 259.251C60.0229 260.826 60.8104 266.02 62.4594 268.898C63.2971 270.399 66.0889 273.485 68.7487 275.953L73.4903 280.301L68.3678 279.006C62.3231 277.326 60.0648 275.225 60.6136 271.748C61.0388 268.297 59.3267 268.147 55.1067 271.375C53.1203 272.962 51.2531 274.201 50.8824 274.281C50.5117 274.36 49.0297 272.868 47.5171 270.93C46.0044 268.992 44.0946 267.01 43.3447 266.524C41.3199 265.213 37.2464 266.407 35.692 268.806C34.6234 270.456 34.6626 271.546 36.0031 273.586L37.6743 276.265L32.3447 274.303C29.4549 273.177 26.3972 272.474 25.6072 272.707C24.0273 273.174 23.4921 275.808 24.3733 278.721C25.1753 281.263 24.3188 282.092 19.0847 283.599C16.5426 284.401 14.1548 285.622 13.8676 286.394C13.5319 287.241 15.5158 291.081 18.6289 295.972L23.991 304.129L33.5246 309.133C47.7256 316.628 61.7417 323.258 68.5405 325.745C81.0925 330.362 95.3889 331.957 103.858 329.565C112.623 327.045 123.001 319.076 126.627 312.163L128.535 308.396L138.891 308.184L149.248 307.973L154.909 299.397C159.258 292.846 160.831 289.926 161.481 286.621C162.573 281.154 161.859 279.627 157.584 278.667C155.395 278.102 154.147 277.399 153.838 276.561C153.605 275.771 152.066 273.709 150.381 271.873C147.717 269.083 147.536 268.54 148.856 267.159C150.225 265.704 150.097 265.408 147.199 263.637C145.549 262.569 141.984 261.005 139.421 260.196Z" stroke="#9C2829" stroke-opacity="0.1" stroke-width="2"/>
<path d="M125.956 761.4C108.41 763.342 106.089 763.967 100.654 769.07C97.7894 771.686 93.9835 776.247 91.7491 779.697C88.349 784.946 87.8718 786.34 87.8701 789.959C87.9383 795.113 91.9855 803.163 95.0474 804.188C97.9108 805.191 107.232 801.648 113.421 797.353C123.366 790.381 133.044 778.233 135.559 769.748C136.646 765.769 136.71 761.232 135.563 760.702C135.338 760.557 131.004 760.837 125.956 761.4Z" stroke="#9C2829" stroke-opacity="0.1" stroke-width="2"/>
<path d="M86.8648 809.426C84.0185 809.712 77.3509 809.651 71.919 809.327C58.8975 808.557 57.8647 809.166 48.3484 824.187C42.546 833.31 40.303 836.115 34.1622 842.144C26.0878 850.009 20.339 857.569 20.841 859.917C21.0787 861.029 22.2522 861.683 25.7641 862.999C29.3246 864.241 31.8531 864.282 37.2679 863.318C44.3376 861.936 46.2789 862.554 46.7272 866.464C46.8636 867.404 47.1985 868.366 47.5735 868.609C48.3984 869.143 54.472 865.519 62.7705 859.61L69.2284 855.063L70.6037 848.502C72.112 840.75 73.8206 838.769 78.829 838.926C83.1666 838.968 86.076 835.955 90.0028 827.427C92.9445 821.242 94.5729 811.332 92.9188 809.941C92.416 809.402 89.6625 809.216 86.8648 809.426Z" stroke="#9C2829" stroke-opacity="0.1" stroke-width="2"/>
<path d="M167.727 984.863C165.208 983.658 157.267 980.962 150.15 978.801C134.324 973.98 128.651 970.412 123.809 962.272L120.82 957.355L114.824 955.601C111.515 954.628 106.635 952.958 103.97 951.977C96.845 949.172 92.9087 949.497 87.8059 953.43C82.778 957.413 82.4508 958.904 84.9316 966.579C87.5888 974.475 94.1764 985.342 107.882 1004.12C114.824 1013.62 122.501 1024.45 124.979 1028.18L129.53 1034.96L132.787 1033.88C139.747 1031.68 141.169 1030.47 145.7 1022.65C155.371 1006.24 157.95 1002.59 161.229 1001.31C165.272 999.667 168.777 996.721 171.965 992.292C174.958 988.163 174.958 988.163 167.727 984.863Z" stroke="#9C2829" stroke-opacity="0.1" stroke-width="2"/>
</g>
</g>
<defs>
<clipPath id="clip0_98_1080">
<rect width="889" height="1068" fill="white"/>
</clipPath>
</defs>
</svg>
