<svg width="991" height="1068" viewBox="0 0 991 1068" fill="none" xmlns="http://www.w3.org/2000/svg">
<mask id="mask0_98_1079" style="mask-type:alpha" maskUnits="userSpaceOnUse" x="0" y="0" width="991" height="1068">
<rect width="991" height="1068" fill="#FFFDF8"/>
<rect x="0.5" y="0.5" width="990" height="1067" stroke="#9C2829" stroke-opacity="0.1"/>
</mask>
<g mask="url(#mask0_98_1079)">
<path d="M670.599 1201.21C672.19 1201.39 673.718 1200.99 675.469 1199.69C677.256 1198.37 679.239 1196.15 681.669 1192.76C684.091 1189.39 686.913 1184.92 690.391 1179.16C696.009 1169.79 699.568 1162.77 701.916 1155.45C704.263 1148.13 705.415 1140.46 706.158 1129.77V1129.77C706.736 1121.54 707.237 1116.69 708.702 1112.68C710.18 1108.62 712.614 1105.47 716.837 1100.54L716.842 1100.53C719.765 1097.18 721.161 1095.38 721.854 1093.43C722.545 1091.48 722.565 1089.28 722.397 1084.98C722.233 1080.94 722.258 1078.37 722.875 1076.35C723.514 1074.25 724.759 1072.84 726.688 1071.02C729.688 1068.12 735.291 1064.41 741.946 1060.69C748.631 1056.96 756.459 1053.18 763.957 1050.16L763.959 1050.16C776.626 1045.1 785.226 1040.88 790.649 1036.92C796.064 1032.98 798.131 1029.44 798.131 1025.77C798.131 1024.02 797.351 1021.7 796.05 1019.46C794.756 1017.24 793.03 1015.24 791.29 1014.08C789.106 1012.65 788.179 1010.14 788.271 1007.71C788.364 1005.29 789.475 1002.79 791.578 1001.25V1001.25C793.496 999.835 794.927 998.818 796.801 998.993C797.702 999.077 798.627 999.426 799.685 999.962C800.746 1000.5 802.024 1001.27 803.635 1002.27L803.639 1002.27C805.074 1003.17 806.718 1003.98 808.18 1004.56C809.69 1005.15 810.858 1005.45 811.395 1005.45C813.163 1005.45 815.882 1004.66 819.146 1003.24C822.371 1001.84 826.01 999.886 829.573 997.673C833.135 995.461 836.603 993.005 839.491 990.615C842.396 988.211 844.652 985.925 845.852 984.058C847.242 981.697 850.104 978.318 852.319 976.395V976.394C853.519 975.309 854.998 973.222 856.584 970.415C858.155 967.634 859.785 964.231 861.307 960.593C864.357 953.302 866.931 945.165 867.743 939.29L867.745 939.277C868.838 932.045 870.744 926.42 874.424 921.242C878.089 916.084 883.465 911.44 891.374 906.085V906.086C898.174 901.419 906.006 896.592 908.721 895.227L908.729 895.223L908.735 895.219C911.202 894.029 915.987 891.51 919.313 889.771C922.711 887.995 928.751 885.839 932.796 884.889V884.888C936.548 883.97 941.601 882.131 943.837 880.977H943.838C947.788 878.9 951.576 873.434 955.319 863.423C959.039 853.476 962.63 839.285 966.355 820.115V820.114C968.758 807.526 970.595 799.549 972.972 793.359C975.364 787.129 978.292 782.738 982.809 777.29L982.814 777.283C987.488 771.745 991.546 765.548 994.473 759.723C997.319 754.057 999.049 748.832 999.298 744.947L999.317 744.575C999.397 741.981 999.191 740.122 998.587 738.42C997.98 736.712 996.943 735.084 995.235 732.991C992.306 729.426 986.33 725.272 978.233 721.121C970.172 716.987 960.118 712.91 949.144 709.459C938.824 706.248 924.36 700.5 916.855 696.879L916.85 696.876L916.843 696.874C913.137 695.02 909.434 693.365 906.458 692.177C904.969 691.583 903.673 691.109 902.655 690.786C901.587 690.446 900.955 690.317 900.719 690.317C900.481 690.317 899.944 690.424 899.08 690.708C898.255 690.978 897.233 691.375 896.077 691.869C894.057 692.731 891.668 693.874 889.284 695.121L888.265 695.662C883.427 698.364 880.761 699.817 877.895 700.438C875.029 701.058 872.004 700.837 866.508 700.441H866.507C860.576 700.007 855.912 699.436 852.444 698.466C848.99 697.5 846.52 696.082 845.259 693.797C844 691.517 844.096 688.646 845.086 685.155C845.956 682.086 847.562 678.38 849.784 673.905L850.774 671.94C854.239 665.109 856.119 659.874 856.575 655.841C857.025 651.863 856.084 649.139 853.962 647.138L853.959 647.135C852.068 645.339 849.206 641.813 847.359 639.113L847.341 639.086L847.324 639.058C845.814 636.507 842.623 633.983 838.111 631.767C833.908 629.703 828.659 627.955 822.816 626.712L821.641 626.471C819.298 626.049 815.373 624.753 810.935 623.06C806.458 621.353 801.383 619.211 796.725 617.071L796.723 617.07C783.407 610.914 778.159 607.525 771.253 600.753L771.248 600.749C764.541 594.091 760.118 590.257 755.189 587.702C750.573 585.308 745.453 584.004 737.466 582.644L735.839 582.373C727.72 581.117 716.255 578.572 709.229 576.714L707.892 576.354C700.39 574.343 696.334 573.352 693.472 573.256C690.758 573.166 689.138 573.882 686.479 575.567H686.478C684.305 576.939 680.584 580.693 678.312 583.955L678.303 583.968L678.293 583.981L677.817 584.609C676.703 586.054 675.574 587.353 674.597 588.335C674.04 588.895 673.515 589.369 673.057 589.711C672.828 589.882 672.596 590.035 672.37 590.15C672.191 590.241 671.939 590.348 671.651 590.374L671.526 590.379C671.205 590.379 670.873 590.27 670.623 590.174C670.34 590.066 670.016 589.914 669.665 589.734C668.962 589.372 668.086 588.86 667.102 588.246C665.129 587.014 662.666 585.334 660.168 583.527L660.161 583.522L660.154 583.516C657.701 581.675 655.169 580.034 653.076 578.858C652.029 578.269 651.105 577.805 650.365 577.491C649.576 577.156 649.136 577.054 648.988 577.054C649.024 577.054 648.966 577.049 648.778 577.132C648.605 577.209 648.38 577.335 648.104 577.519C647.552 577.887 646.87 578.44 646.106 579.151C644.582 580.57 642.8 582.555 641.178 584.773L641.173 584.779L641.169 584.785C637.843 589.198 632.524 595.614 629.342 598.982H629.343C623.823 605.023 621.466 613.275 621.174 630.227L621.152 631.895C621.152 635.892 620.896 638.569 619.335 642.299C617.807 645.952 615.023 650.623 610.066 658.661C601.142 673.144 598.891 678.225 596.937 687.785V687.788L594.513 699.546C593.621 703.847 592.708 708.183 591.961 711.519H591.962L589.39 723.152L594.52 732.821C604.274 751.166 606.006 754.887 607.202 759.698L607.204 759.705L607.206 759.712C607.884 762.63 609.593 766.887 612.008 771.883C614.414 776.862 617.491 782.516 620.867 788.21C627.629 799.616 635.541 811.104 641.6 817.622L641.606 817.628L641.613 817.636C645.339 821.804 653.538 828.272 659.941 832.101L659.94 832.102C670.733 838.511 677.152 843.642 680.581 851.376C683.984 859.051 684.372 869.142 683.628 885.24V885.242C682.88 900.802 680.185 928.313 677.201 953.651C674.315 978.16 671.146 1000.77 669.195 1008.54L669.01 1009.25C668.568 1010.95 667.746 1012.85 666.835 1014.55C665.924 1016.26 664.887 1017.83 663.987 1018.84L663.959 1018.87L663.929 1018.9C663.15 1019.64 662.389 1020.84 661.821 1022.19C661.254 1023.55 660.926 1024.94 660.926 1026.04C660.926 1027.39 660.561 1029.16 659.985 1030.93C659.408 1032.7 658.591 1034.54 657.625 1036.03H657.626C656.143 1038.41 654.481 1042.79 653.748 1046L653.614 1046.62C653.265 1048.47 653.167 1051.51 653.291 1055.26C653.414 1058.99 653.754 1063.35 654.249 1067.78C655.242 1076.68 656.848 1085.79 658.551 1090.74L658.553 1090.74C659.71 1094.17 660.588 1096.75 661.175 1098.75C661.757 1100.73 662.086 1102.23 662.086 1103.44C662.086 1104.73 661.716 1105.69 660.98 1106.57C660.31 1107.36 659.328 1108.08 658.212 1108.92H658.213C656.64 1110.12 655.59 1111.28 654.824 1112.73C654.146 1114.02 653.665 1115.59 653.283 1117.72L653.125 1118.67C652.866 1120.73 652.356 1122.88 651.762 1124.7C651.177 1126.5 650.47 1128.11 649.772 1128.99L649.754 1129.02L649.733 1129.04L649.431 1129.4C647.982 1131.2 647.49 1133.27 648.002 1135.91C648.562 1138.8 650.33 1142.36 653.455 1146.86L653.465 1146.87L659.265 1155.53L659.785 1156.31L659.045 1156.88L654.902 1160.08L654.879 1160.1C653.197 1161.32 652.28 1162.3 651.742 1163.48C651.193 1164.69 650.982 1166.25 650.982 1168.75C650.982 1174.65 652.518 1180.97 655.033 1186.42C657.556 1191.88 661.011 1196.36 664.761 1198.68L664.771 1198.69C667.102 1200.17 668.943 1201.01 670.599 1201.21Z" stroke="#9C2829" stroke-opacity="0.1" stroke-width="2"/>
<mask id="path-4-inside-1_98_1079" fill="white">
<path d="M519.8 -67.0848C519.4 -65.8848 521.133 -60.8181 523.667 -55.7514C531.133 -40.8181 529.667 -35.3514 516.6 -30.2847C505.933 -26.1514 468.733 -24.9514 452.333 -28.2847C446.333 -29.6181 439.667 -30.1514 437.667 -29.7514C433 -28.6847 427.8 -23.2181 425 -16.4181C422.6 -10.9514 419.4 -6.41808 417.533 -6.41808C417 -6.41808 413.8 -9.35141 410.333 -12.8181C403.4 -20.2847 399.267 -21.8847 381.933 -23.6181C365.933 -25.3514 361.667 -27.8847 361.667 -35.7514C361.667 -40.1514 354.733 -42.1514 330.733 -44.5514C279.8 -49.6181 248.333 -43.2181 236.333 -25.3514C233.8 -21.4847 230.867 -18.4181 229.667 -18.4181C228.6 -18.4181 224.333 -22.1514 220.333 -26.5514C216.2 -31.3514 210.867 -35.7514 207.8 -37.0847C197.667 -41.4847 132.733 -55.3514 110.333 -57.8848C105.933 -58.2848 98.4667 -60.2848 93.6667 -62.0181C73.8 -69.7514 42.8667 -64.2848 22.8667 -49.6181C19.2667 -46.9514 13.6667 -44.0181 10.3333 -43.0847C0.733333 -40.1514 -1 -38.8181 -1 -34.0181C-1 -30.5514 0.333333 -28.5514 7.26667 -22.4181C27.4 -4.55141 27.4 -4.41808 26.4667 2.51525C25.8 7.58192 26.2 9.58192 29 14.3819C30.8667 17.4486 32.3333 20.9153 32.3333 21.9819C32.3333 25.8486 23.8 35.3153 13.2667 43.0486C0.866667 52.1153 -0.0666666 53.3153 0.0666667 60.3819C0.2 67.7153 2.33333 70.6486 8.73333 72.3819C11.8 73.1819 19.8 76.7819 26.4667 80.3819C33.1333 83.9819 39.4 86.9153 40.3333 86.9153C41.1333 86.9153 47.5333 89.3153 54.2 92.3819C71.4 99.8486 72.6 99.5819 81.1333 85.8486C89.6667 71.8486 96.6 63.5819 102.067 60.7819C106.2 58.5153 106.2 58.6486 109.667 62.7819C114.067 67.9819 116.333 67.9819 122.333 62.7819C125.133 60.2486 127.933 58.9153 129.4 59.3153C130.6 59.7153 143.133 64.1153 157 69.3153C171 74.3819 189.8 81.1819 199 84.2486C218.2 90.9153 227.4 96.6486 240.333 110.515C249.933 120.649 255.4 129.315 269.667 157.315C277 171.715 281 177.849 285.533 181.982C297 192.515 308.333 204.649 312.467 210.782C317.267 218.115 317.267 224.249 312.2 236.915C309.133 244.649 309 246.115 309 279.582V314.382L315.133 324.915C318.467 330.782 322.467 338.249 324.067 341.582C325.667 344.915 332.067 353.315 338.467 360.249C352.733 375.982 357.267 382.515 361.667 393.582C366.067 404.249 369.267 405.449 373.4 398.382C375 395.715 377.133 393.582 378.067 393.582C381.267 393.582 388.733 402.915 400.333 421.715C406.333 431.582 416.6 447.715 423 457.582C435.267 476.782 439.133 483.582 445.667 497.849C453.933 515.982 477.4 531.715 507 539.049C537.8 546.515 563.533 560.382 581.933 579.182C588.2 585.582 594.333 590.915 595.533 590.915C599.667 590.915 601.667 585.449 601.667 574.249C601.533 556.249 596.733 549.182 582.867 547.049C570.067 545.049 568.867 540.515 574.2 514.915C577.8 497.449 577.4 494.915 570.467 494.915C565.267 494.915 561.667 498.115 555.933 508.115C549.8 518.515 545.933 520.915 535.933 520.782C525.8 520.782 519.133 517.582 511.4 509.182C500.2 497.049 495.8 483.315 495.8 459.582C495.667 445.449 496.067 442.782 498.733 437.315C502.6 429.315 510.333 422.382 520.867 417.449C528.733 413.582 529.4 413.449 543.133 414.382L557.267 415.182L564.2 409.049C567.933 405.715 572.6 402.515 574.333 402.115C579.133 400.915 587.933 402.515 601.267 407.049C618.467 412.782 620.2 412.249 620.333 401.049C620.333 395.449 624.333 387.982 635.133 373.582C647.667 356.915 653 345.582 655.8 329.582C656.867 322.649 658.6 315.449 659.4 313.715C660.333 311.849 664.333 308.115 668.333 305.449C677.667 299.049 684.467 291.582 694.067 277.182C702.6 264.649 709.267 259.182 731.667 247.182C739.933 242.782 743.8 239.849 744.067 237.982C744.6 234.649 733.133 218.915 730.067 218.915C728.867 218.915 723.8 220.782 718.733 223.182C711 226.649 709.133 227.049 706.333 225.849C697.8 221.849 706.467 211.449 726.333 201.715C739.133 195.449 753 191.182 776.6 186.249C801 181.049 808.6 175.449 804.067 165.982C802.467 162.515 801.667 162.249 793.667 161.849C785.667 161.449 781.667 159.982 781.667 157.582C781.667 156.915 783.8 153.982 786.333 150.915C788.867 147.849 791 144.515 791 143.449C791 142.382 788.2 139.582 784.733 137.315C774.2 130.249 763.533 118.382 758.467 108.115C755.8 102.782 753.667 97.4486 753.667 95.9819C753.667 91.7153 751.133 88.2486 747.933 88.2486C746.333 88.2486 741.533 90.3819 737.267 93.0486C727.933 98.7819 721.4 99.9819 714.6 97.1819C709.4 94.9153 706.2 89.5819 703 77.7153C699.533 64.7819 680.333 50.3819 667.667 51.1819C655.933 51.9819 654.2 57.5819 653 99.7153C652.067 134.382 650.6 146.249 645.4 165.315C641.133 181.049 637.933 186.915 633.533 186.915C624.733 186.915 612.733 173.849 607 157.849C605.267 153.182 602.2 147.715 600.067 145.582C598.067 143.449 589.267 138.115 580.733 133.582C557.8 121.449 545 112.515 533.4 100.649C522.733 89.5819 520.867 85.8486 522.2 78.5153C525 63.4486 544.467 35.1819 558.733 25.3153C564.333 21.4486 564.6 21.0486 563.8 16.2486C563.4 13.4486 563.4 10.1153 563.8 9.04859C565.667 4.24859 590.333 -6.68475 604.467 -8.95141C616.067 -10.8181 616.733 -11.7514 615.933 -23.0847C615.133 -34.4181 612.467 -42.9514 609.4 -43.4847C607.933 -43.7514 603.8 -39.6181 597.133 -31.2181C590.6 -22.9514 586.067 -18.4181 584.333 -18.4181C581.667 -18.4181 576.867 -24.0181 573 -31.7514C569.8 -38.1514 568.733 -38.5514 559.933 -37.6181C549.533 -36.5514 546.867 -38.5514 540.333 -52.1514C537.4 -58.1514 533.4 -64.4181 531.533 -66.1514C527.667 -69.4848 521 -70.0181 519.8 -67.0848ZM580.6 209.049C592.733 222.382 609.533 238.115 614.6 240.649C616.733 241.849 620.6 243.049 623.4 243.582C627.533 244.382 628.333 245.049 628.333 247.982C628.333 251.449 619.667 268.249 617.8 268.249C616.6 268.249 610.2 261.315 604.333 253.849C597.4 244.782 595.4 246.115 589.667 262.915C584.067 279.449 583.667 280.249 580.333 280.249C578.6 280.249 577.4 278.782 576.467 275.182C573.267 263.849 575.267 254.915 583.267 245.182C586.2 241.715 588.333 237.849 588.067 236.649C587.533 233.715 580.867 232.382 565.667 232.382C555.133 232.249 551 231.049 551 228.115C551 227.582 553.4 224.249 556.333 220.915C562.333 213.982 567 205.715 567 201.849C567 199.049 568.333 197.315 569.8 197.849C570.467 198.115 575.267 203.049 580.6 209.049ZM635 238.915C635 239.582 634.467 240.249 633.667 240.249C633 240.249 632.333 239.582 632.333 238.915C632.333 238.115 633 237.582 633.667 237.582C634.467 237.582 635 238.115 635 238.915ZM656.333 264.915C656.333 268.515 623.8 288.249 617.933 288.249C614.067 288.249 614.333 285.982 618.733 279.849C621.533 275.849 624.333 274.115 631 271.582C635.8 269.849 643 267.315 647 265.715C655.8 262.382 656.333 262.382 656.333 264.915Z"/>
</mask>
<path d="M519.8 -67.0848C519.4 -65.8848 521.133 -60.8181 523.667 -55.7514C531.133 -40.8181 529.667 -35.3514 516.6 -30.2847C505.933 -26.1514 468.733 -24.9514 452.333 -28.2847C446.333 -29.6181 439.667 -30.1514 437.667 -29.7514C433 -28.6847 427.8 -23.2181 425 -16.4181C422.6 -10.9514 419.4 -6.41808 417.533 -6.41808C417 -6.41808 413.8 -9.35141 410.333 -12.8181C403.4 -20.2847 399.267 -21.8847 381.933 -23.6181C365.933 -25.3514 361.667 -27.8847 361.667 -35.7514C361.667 -40.1514 354.733 -42.1514 330.733 -44.5514C279.8 -49.6181 248.333 -43.2181 236.333 -25.3514C233.8 -21.4847 230.867 -18.4181 229.667 -18.4181C228.6 -18.4181 224.333 -22.1514 220.333 -26.5514C216.2 -31.3514 210.867 -35.7514 207.8 -37.0847C197.667 -41.4847 132.733 -55.3514 110.333 -57.8848C105.933 -58.2848 98.4667 -60.2848 93.6667 -62.0181C73.8 -69.7514 42.8667 -64.2848 22.8667 -49.6181C19.2667 -46.9514 13.6667 -44.0181 10.3333 -43.0847C0.733333 -40.1514 -1 -38.8181 -1 -34.0181C-1 -30.5514 0.333333 -28.5514 7.26667 -22.4181C27.4 -4.55141 27.4 -4.41808 26.4667 2.51525C25.8 7.58192 26.2 9.58192 29 14.3819C30.8667 17.4486 32.3333 20.9153 32.3333 21.9819C32.3333 25.8486 23.8 35.3153 13.2667 43.0486C0.866667 52.1153 -0.0666666 53.3153 0.0666667 60.3819C0.2 67.7153 2.33333 70.6486 8.73333 72.3819C11.8 73.1819 19.8 76.7819 26.4667 80.3819C33.1333 83.9819 39.4 86.9153 40.3333 86.9153C41.1333 86.9153 47.5333 89.3153 54.2 92.3819C71.4 99.8486 72.6 99.5819 81.1333 85.8486C89.6667 71.8486 96.6 63.5819 102.067 60.7819C106.2 58.5153 106.2 58.6486 109.667 62.7819C114.067 67.9819 116.333 67.9819 122.333 62.7819C125.133 60.2486 127.933 58.9153 129.4 59.3153C130.6 59.7153 143.133 64.1153 157 69.3153C171 74.3819 189.8 81.1819 199 84.2486C218.2 90.9153 227.4 96.6486 240.333 110.515C249.933 120.649 255.4 129.315 269.667 157.315C277 171.715 281 177.849 285.533 181.982C297 192.515 308.333 204.649 312.467 210.782C317.267 218.115 317.267 224.249 312.2 236.915C309.133 244.649 309 246.115 309 279.582V314.382L315.133 324.915C318.467 330.782 322.467 338.249 324.067 341.582C325.667 344.915 332.067 353.315 338.467 360.249C352.733 375.982 357.267 382.515 361.667 393.582C366.067 404.249 369.267 405.449 373.4 398.382C375 395.715 377.133 393.582 378.067 393.582C381.267 393.582 388.733 402.915 400.333 421.715C406.333 431.582 416.6 447.715 423 457.582C435.267 476.782 439.133 483.582 445.667 497.849C453.933 515.982 477.4 531.715 507 539.049C537.8 546.515 563.533 560.382 581.933 579.182C588.2 585.582 594.333 590.915 595.533 590.915C599.667 590.915 601.667 585.449 601.667 574.249C601.533 556.249 596.733 549.182 582.867 547.049C570.067 545.049 568.867 540.515 574.2 514.915C577.8 497.449 577.4 494.915 570.467 494.915C565.267 494.915 561.667 498.115 555.933 508.115C549.8 518.515 545.933 520.915 535.933 520.782C525.8 520.782 519.133 517.582 511.4 509.182C500.2 497.049 495.8 483.315 495.8 459.582C495.667 445.449 496.067 442.782 498.733 437.315C502.6 429.315 510.333 422.382 520.867 417.449C528.733 413.582 529.4 413.449 543.133 414.382L557.267 415.182L564.2 409.049C567.933 405.715 572.6 402.515 574.333 402.115C579.133 400.915 587.933 402.515 601.267 407.049C618.467 412.782 620.2 412.249 620.333 401.049C620.333 395.449 624.333 387.982 635.133 373.582C647.667 356.915 653 345.582 655.8 329.582C656.867 322.649 658.6 315.449 659.4 313.715C660.333 311.849 664.333 308.115 668.333 305.449C677.667 299.049 684.467 291.582 694.067 277.182C702.6 264.649 709.267 259.182 731.667 247.182C739.933 242.782 743.8 239.849 744.067 237.982C744.6 234.649 733.133 218.915 730.067 218.915C728.867 218.915 723.8 220.782 718.733 223.182C711 226.649 709.133 227.049 706.333 225.849C697.8 221.849 706.467 211.449 726.333 201.715C739.133 195.449 753 191.182 776.6 186.249C801 181.049 808.6 175.449 804.067 165.982C802.467 162.515 801.667 162.249 793.667 161.849C785.667 161.449 781.667 159.982 781.667 157.582C781.667 156.915 783.8 153.982 786.333 150.915C788.867 147.849 791 144.515 791 143.449C791 142.382 788.2 139.582 784.733 137.315C774.2 130.249 763.533 118.382 758.467 108.115C755.8 102.782 753.667 97.4486 753.667 95.9819C753.667 91.7153 751.133 88.2486 747.933 88.2486C746.333 88.2486 741.533 90.3819 737.267 93.0486C727.933 98.7819 721.4 99.9819 714.6 97.1819C709.4 94.9153 706.2 89.5819 703 77.7153C699.533 64.7819 680.333 50.3819 667.667 51.1819C655.933 51.9819 654.2 57.5819 653 99.7153C652.067 134.382 650.6 146.249 645.4 165.315C641.133 181.049 637.933 186.915 633.533 186.915C624.733 186.915 612.733 173.849 607 157.849C605.267 153.182 602.2 147.715 600.067 145.582C598.067 143.449 589.267 138.115 580.733 133.582C557.8 121.449 545 112.515 533.4 100.649C522.733 89.5819 520.867 85.8486 522.2 78.5153C525 63.4486 544.467 35.1819 558.733 25.3153C564.333 21.4486 564.6 21.0486 563.8 16.2486C563.4 13.4486 563.4 10.1153 563.8 9.04859C565.667 4.24859 590.333 -6.68475 604.467 -8.95141C616.067 -10.8181 616.733 -11.7514 615.933 -23.0847C615.133 -34.4181 612.467 -42.9514 609.4 -43.4847C607.933 -43.7514 603.8 -39.6181 597.133 -31.2181C590.6 -22.9514 586.067 -18.4181 584.333 -18.4181C581.667 -18.4181 576.867 -24.0181 573 -31.7514C569.8 -38.1514 568.733 -38.5514 559.933 -37.6181C549.533 -36.5514 546.867 -38.5514 540.333 -52.1514C537.4 -58.1514 533.4 -64.4181 531.533 -66.1514C527.667 -69.4848 521 -70.0181 519.8 -67.0848ZM580.6 209.049C592.733 222.382 609.533 238.115 614.6 240.649C616.733 241.849 620.6 243.049 623.4 243.582C627.533 244.382 628.333 245.049 628.333 247.982C628.333 251.449 619.667 268.249 617.8 268.249C616.6 268.249 610.2 261.315 604.333 253.849C597.4 244.782 595.4 246.115 589.667 262.915C584.067 279.449 583.667 280.249 580.333 280.249C578.6 280.249 577.4 278.782 576.467 275.182C573.267 263.849 575.267 254.915 583.267 245.182C586.2 241.715 588.333 237.849 588.067 236.649C587.533 233.715 580.867 232.382 565.667 232.382C555.133 232.249 551 231.049 551 228.115C551 227.582 553.4 224.249 556.333 220.915C562.333 213.982 567 205.715 567 201.849C567 199.049 568.333 197.315 569.8 197.849C570.467 198.115 575.267 203.049 580.6 209.049ZM635 238.915C635 239.582 634.467 240.249 633.667 240.249C633 240.249 632.333 239.582 632.333 238.915C632.333 238.115 633 237.582 633.667 237.582C634.467 237.582 635 238.115 635 238.915ZM656.333 264.915C656.333 268.515 623.8 288.249 617.933 288.249C614.067 288.249 614.333 285.982 618.733 279.849C621.533 275.849 624.333 274.115 631 271.582C635.8 269.849 643 267.315 647 265.715C655.8 262.382 656.333 262.382 656.333 264.915Z" stroke="#9C2829" stroke-opacity="0.1" stroke-width="4" mask="url(#path-4-inside-1_98_1079)"/>
</g>
</svg>
